<?xml version="1.0" encoding="utf-8"?>
<!-- Generator: Adobe Illustrator 19.2.0, SVG Export Plug-In . SVG Version: 6.00 Build 0)  -->
<svg version="1.1" id="Outlined_2_" xmlns="http://www.w3.org/2000/svg" xmlns:xlink="http://www.w3.org/1999/xlink" x="0px"
	 y="0px" viewBox="0 0 38 38" style="enable-background:new 0 0 38 38;" xml:space="preserve">
<style type="text/css">
	.st0{fill:#BDBDBD;}
	.st1{opacity:0.1;fill:#616161;}
	.st2{fill:none;stroke:#7CB342;stroke-miterlimit:10;}
	.st3{fill:none;stroke:#616161;stroke-miterlimit:10;}
	.st4{clip-path:url(#SVGID_2_);}
	.st5{fill:#616161;}
	.st6{clip-path:url(#SVGID_4_);}
</style>
<g>
	<rect x="2" y="2" class="st0" width="1" height="1"/>
	<rect x="4" y="2" class="st0" width="1" height="1"/>
	<rect x="6" y="2" class="st0" width="1" height="1"/>
	<rect x="8" y="2" class="st0" width="1" height="1"/>
	<rect x="10" y="2" class="st0" width="1" height="1"/>
	<rect x="12" y="2" class="st0" width="1" height="1"/>
	<rect x="14" y="2" class="st0" width="1" height="1"/>
	<rect x="16" y="2" class="st0" width="1" height="1"/>
	<rect x="18" y="2" class="st0" width="1" height="1"/>
	<rect x="2" y="4" class="st0" width="1" height="1"/>
	<rect x="4" y="4" class="st0" width="1" height="1"/>
	<rect x="6" y="4" class="st0" width="1" height="1"/>
	<rect x="8" y="4" class="st0" width="1" height="1"/>
	<rect x="10" y="4" class="st0" width="1" height="1"/>
	<rect x="12" y="4" class="st0" width="1" height="1"/>
	<rect x="14" y="4" class="st0" width="1" height="1"/>
	<rect x="16" y="4" class="st0" width="1" height="1"/>
	<rect x="18" y="4" class="st0" width="1" height="1"/>
	<rect x="2" y="6" class="st0" width="1" height="1"/>
	<rect x="4" y="6" class="st0" width="1" height="1"/>
	<rect x="6" y="6" class="st0" width="1" height="1"/>
	<rect x="8" y="6" class="st0" width="1" height="1"/>
	<rect x="10" y="6" class="st0" width="1" height="1"/>
	<rect x="12" y="6" class="st0" width="1" height="1"/>
	<rect x="14" y="6" class="st0" width="1" height="1"/>
	<rect x="16" y="6" class="st0" width="1" height="1"/>
	<rect x="18" y="6" class="st0" width="1" height="1"/>
	<rect x="6" y="8" transform="matrix(-1.836970e-016 1 -1 -1.836970e-016 15 2)" class="st0" width="1" height="1"/>
	<rect x="6" y="10" transform="matrix(-1.836970e-016 1 -1 -1.836970e-016 17 4)" class="st0" width="1" height="1"/>
	<rect x="6" y="12" transform="matrix(-1.836970e-016 1 -1 -1.836970e-016 19 6)" class="st0" width="1" height="1"/>
	<rect x="6" y="14" transform="matrix(-1.836970e-016 1 -1 -1.836970e-016 21 8)" class="st0" width="1" height="1"/>
	<rect x="6" y="16" transform="matrix(-1.836970e-016 1 -1 -1.836970e-016 23 10)" class="st0" width="1" height="1"/>
	<rect x="6" y="18" transform="matrix(-1.836970e-016 1 -1 -1.836970e-016 25 12)" class="st0" width="1" height="1"/>
	<rect x="4" y="2" transform="matrix(-1.836970e-016 1 -1 -1.836970e-016 7 -2)" class="st0" width="1" height="1"/>
	<rect x="4" y="4" transform="matrix(-1.836970e-016 1 -1 -1.836970e-016 9 8.881784e-016)" class="st0" width="1" height="1"/>
	<rect x="4" y="8" transform="matrix(-1.836970e-016 1 -1 -1.836970e-016 13 4)" class="st0" width="1" height="1"/>
	<rect x="4" y="10" transform="matrix(-1.836970e-016 1 -1 -1.836970e-016 15 6)" class="st0" width="1" height="1"/>
	<rect x="4" y="12" transform="matrix(-1.836970e-016 1 -1 -1.836970e-016 17 8)" class="st0" width="1" height="1"/>
	<rect x="4" y="14" transform="matrix(-1.836970e-016 1 -1 -1.836970e-016 19 10)" class="st0" width="1" height="1"/>
	<rect x="4" y="16" transform="matrix(-1.836970e-016 1 -1 -1.836970e-016 21 12)" class="st0" width="1" height="1"/>
	<rect x="4" y="18" transform="matrix(-1.836970e-016 1 -1 -1.836970e-016 23 14)" class="st0" width="1" height="1"/>
	<rect x="2" y="8" transform="matrix(-1.836970e-016 1 -1 -1.836970e-016 11 6)" class="st0" width="1" height="1"/>
	<rect x="2" y="10" transform="matrix(-1.836970e-016 1 -1 -1.836970e-016 13 8)" class="st0" width="1" height="1"/>
	<rect x="2" y="12" transform="matrix(-1.836970e-016 1 -1 -1.836970e-016 15 10)" class="st0" width="1" height="1"/>
	<rect x="2" y="14" transform="matrix(-1.836970e-016 1 -1 -1.836970e-016 17 12)" class="st0" width="1" height="1"/>
	<rect x="2" y="16" transform="matrix(-1.836970e-016 1 -1 -1.836970e-016 19 14)" class="st0" width="1" height="1"/>
	<rect x="2" y="18" transform="matrix(-1.836970e-016 1 -1 -1.836970e-016 21 16)" class="st0" width="1" height="1"/>
	<rect x="8" y="8" class="st0" width="1" height="1"/>
	<rect x="10" y="8" class="st0" width="1" height="1"/>
	<rect x="8" y="10" class="st0" width="1" height="1"/>
	<rect x="10" y="10" class="st0" width="1" height="1"/>
	<rect x="10" y="8" transform="matrix(-1.836970e-016 1 -1 -1.836970e-016 19 -2)" class="st0" width="1" height="1"/>
	<rect x="10" y="10" transform="matrix(-1.836970e-016 1 -1 -1.836970e-016 21 1.776357e-015)" class="st0" width="1" height="1"/>
</g>
<rect x="9" y="11" class="st1" width="27" height="25"/>
<path class="st2" d="M24.5,10.5c0,0,3,2.5,3,8.5s-2,7.5-2,7.5"/>
<path class="st3" d="M27.5,7.5c0,0,4,2.5,4,11.5c0,8-3,10.5-3,10.5"/>
<path class="st3" d="M21.5,13.5c0,0,2,1.5,2,5.5s-2,5.5-2,5.5"/>
<g>
	<defs>
		<polygon id="SVGID_1_" points="6,24 11,24 11,21 10,21 10,17 11,17 11,14 6,14 		"/>
	</defs>
	<clipPath id="SVGID_2_">
		<use xlink:href="#SVGID_1_"  style="overflow:visible;"/>
	</clipPath>
	<g class="st4">
		<path class="st5" d="M10,15v8l-3,0c0,0,0,0,0,0l0-8c0,0,0,0,0,0H10 M11,14H7c-1,0-1,1-1,1v8c0,1,1,1,1,1h4V14L11,14z"/>
	</g>
</g>
<g>
	<defs>
		<polygon id="SVGID_3_" points="10,31 17,31 17,7 10,7 10,17 11,17 11,21 10,21 		"/>
	</defs>
	<clipPath id="SVGID_4_">
		<use xlink:href="#SVGID_3_"  style="overflow:visible;"/>
	</clipPath>
	<g class="st6">
		<path class="st5" d="M16,9.4v19.2l-5-5v-9.2L16,9.4 M17,7l-7,7v10l7,7V7L17,7z"/>
	</g>
</g>
<g>
	<path class="st5" d="M17,16c0.1,0,2,0,2,3c0,2.8-1.7,3-2,3V16 M17,15h-1v8h1c0,0,3,0,3-4S17,15,17,15L17,15z"/>
</g>
</svg>
