<?xml version="1.0" encoding="utf-8"?>
<!-- Generator: Adobe Illustrator 19.2.0, SVG Export Plug-In . SVG Version: 6.00 Build 0)  -->
<svg version="1.1" id="Outlined_2_" xmlns="http://www.w3.org/2000/svg" xmlns:xlink="http://www.w3.org/1999/xlink" x="0px"
	 y="0px" viewBox="0 0 38 38" style="enable-background:new 0 0 38 38;" xml:space="preserve">
<style type="text/css">
	.st0{opacity:0.15;fill:#616161;}
	.st1{fill:#BDBDBD;}
	.st2{fill:#E53935;}
	.st3{fill:none;}
	.st4{fill:#616161;}
</style>
<rect x="9" y="2" class="st0" width="27" height="24"/>
<g>
	<rect x="2" y="35" transform="matrix(6.123234e-017 -1 1 6.123234e-017 -33 38)" class="st1" width="1" height="1"/>
	<rect x="2" y="33" transform="matrix(6.123234e-017 -1 1 6.123234e-017 -31 36)" class="st1" width="1" height="1"/>
	<rect x="2" y="31" transform="matrix(6.123234e-017 -1 1 6.123234e-017 -29 34)" class="st1" width="1" height="1"/>
	<rect x="2" y="29" transform="matrix(6.123234e-017 -1 1 6.123234e-017 -27 32)" class="st1" width="1" height="1"/>
	<rect x="2" y="27" transform="matrix(6.123234e-017 -1 1 6.123234e-017 -25 30)" class="st1" width="1" height="1"/>
	<rect x="2" y="25" transform="matrix(6.123234e-017 -1 1 6.123234e-017 -23 28)" class="st1" width="1" height="1"/>
	<rect x="2" y="23" transform="matrix(6.123234e-017 -1 1 6.123234e-017 -21 26)" class="st1" width="1" height="1"/>
	<rect x="2" y="21" transform="matrix(6.123234e-017 -1 1 6.123234e-017 -19 24)" class="st1" width="1" height="1"/>
	<rect x="2" y="19" transform="matrix(6.123234e-017 -1 1 6.123234e-017 -17 22)" class="st1" width="1" height="1"/>
	<rect x="4" y="35" transform="matrix(6.123234e-017 -1 1 6.123234e-017 -31 40)" class="st1" width="1" height="1"/>
	<rect x="4" y="33" transform="matrix(6.123234e-017 -1 1 6.123234e-017 -29 38)" class="st1" width="1" height="1"/>
	<rect x="4" y="31" transform="matrix(6.123234e-017 -1 1 6.123234e-017 -27 36)" class="st1" width="1" height="1"/>
	<rect x="4" y="29" transform="matrix(6.123234e-017 -1 1 6.123234e-017 -25 34)" class="st1" width="1" height="1"/>
	<rect x="4" y="27" transform="matrix(6.123234e-017 -1 1 6.123234e-017 -23 32)" class="st1" width="1" height="1"/>
	<rect x="4" y="25" transform="matrix(6.123234e-017 -1 1 6.123234e-017 -21 30)" class="st1" width="1" height="1"/>
	<rect x="4" y="23" transform="matrix(6.123234e-017 -1 1 6.123234e-017 -19 28)" class="st1" width="1" height="1"/>
	<rect x="4" y="21" transform="matrix(6.123234e-017 -1 1 6.123234e-017 -17 26)" class="st1" width="1" height="1"/>
	<rect x="4" y="19" transform="matrix(6.123234e-017 -1 1 6.123234e-017 -15 24)" class="st1" width="1" height="1"/>
	<rect x="6" y="35" transform="matrix(6.123234e-017 -1 1 6.123234e-017 -29 42)" class="st1" width="1" height="1"/>
	<rect x="6" y="33" transform="matrix(6.123234e-017 -1 1 6.123234e-017 -27 40)" class="st1" width="1" height="1"/>
	<rect x="6" y="31" transform="matrix(6.123234e-017 -1 1 6.123234e-017 -25 38)" class="st1" width="1" height="1"/>
	<rect x="6" y="29" transform="matrix(6.123234e-017 -1 1 6.123234e-017 -23 36)" class="st1" width="1" height="1"/>
	<rect x="6" y="27" transform="matrix(6.123234e-017 -1 1 6.123234e-017 -21 34)" class="st1" width="1" height="1"/>
	<rect x="6" y="25" transform="matrix(6.123234e-017 -1 1 6.123234e-017 -19 32)" class="st1" width="1" height="1"/>
	<rect x="6" y="23" transform="matrix(6.123234e-017 -1 1 6.123234e-017 -17 30)" class="st1" width="1" height="1"/>
	<rect x="6" y="21" transform="matrix(6.123234e-017 -1 1 6.123234e-017 -15 28)" class="st1" width="1" height="1"/>
	<rect x="6" y="19" transform="matrix(6.123234e-017 -1 1 6.123234e-017 -13 26)" class="st1" width="1" height="1"/>
	<rect x="8" y="31" class="st1" width="1" height="1"/>
	<rect x="10" y="31" class="st1" width="1" height="1"/>
	<rect x="12" y="31" class="st1" width="1" height="1"/>
	<rect x="14" y="31" class="st1" width="1" height="1"/>
	<rect x="16" y="31" class="st1" width="1" height="1"/>
	<rect x="18" y="31" class="st1" width="1" height="1"/>
	<rect x="2" y="33" class="st1" width="1" height="1"/>
	<rect x="4" y="33" class="st1" width="1" height="1"/>
	<rect x="8" y="33" class="st1" width="1" height="1"/>
	<rect x="10" y="33" class="st1" width="1" height="1"/>
	<rect x="12" y="33" class="st1" width="1" height="1"/>
	<rect x="14" y="33" class="st1" width="1" height="1"/>
	<rect x="16" y="33" class="st1" width="1" height="1"/>
	<rect x="18" y="33" class="st1" width="1" height="1"/>
	<rect x="8" y="35" class="st1" width="1" height="1"/>
	<rect x="10" y="35" class="st1" width="1" height="1"/>
	<rect x="12" y="35" class="st1" width="1" height="1"/>
	<rect x="14" y="35" class="st1" width="1" height="1"/>
	<rect x="16" y="35" class="st1" width="1" height="1"/>
	<rect x="18" y="35" class="st1" width="1" height="1"/>
	<rect x="8" y="29" transform="matrix(6.123234e-017 -1 1 6.123234e-017 -21 38)" class="st1" width="1" height="1"/>
	<rect x="8" y="27" transform="matrix(6.123234e-017 -1 1 6.123234e-017 -19 36)" class="st1" width="1" height="1"/>
	<rect x="10" y="29" transform="matrix(6.123234e-017 -1 1 6.123234e-017 -19 40)" class="st1" width="1" height="1"/>
	<rect x="10" y="27" transform="matrix(6.123234e-017 -1 1 6.123234e-017 -17 38)" class="st1" width="1" height="1"/>
	<rect x="8" y="27" class="st1" width="1" height="1"/>
	<rect x="10" y="27" class="st1" width="1" height="1"/>
</g>
<rect x="13" y="7" class="st2" width="1" height="4"/>
<rect x="24" y="7" class="st2" width="1" height="4"/>
<g>
	<path class="st3" d="M7,17.1V27c0,0.6,0.4,1,1,1h22c0.6,0,1-0.4,1-1v-9.9V15H7V17.1z M19.2,17.1l0.8,0.3V25h-1v-6.3l-1.6,1.6
		l-0.7-0.7L19.2,17.1z"/>
	<rect x="16" y="10" class="st4" width="6" height="1"/>
	<polygon class="st4" points="19,18.7 19,25 20,25 20,17.4 19.2,17.1 16.7,19.6 17.4,20.3 	"/>
	<path class="st4" d="M30,10h-3v1h3c0.6,0,1,0.4,1,1v2v1v12c0,0.6-0.4,1-1,1H8c-0.6,0-1-0.4-1-1V15v-1v-2c0-0.6,0.4-1,1-1h3v-1H8
		c-1.1,0-2,0.9-2,2v15c0,1.1,0.9,2,2,2h22c1.1,0,2-0.9,2-2V12C32,10.9,31.1,10,30,10z"/>
</g>
<rect x="7" y="14" class="st2" width="24" height="1"/>
</svg>
