<?xml version="1.0" encoding="utf-8"?>
<!-- Generator: Adobe Illustrator 19.2.0, SVG Export Plug-In . SVG Version: 6.00 Build 0)  -->
<svg version="1.1" id="Outlined_2_" xmlns="http://www.w3.org/2000/svg" xmlns:xlink="http://www.w3.org/1999/xlink" x="0px"
	 y="0px" viewBox="0 0 38 38" style="enable-background:new 0 0 38 38;" xml:space="preserve">
<style type="text/css">
	.st0{opacity:0.15;fill:#616161;}
	.st1{fill:#BDBDBD;}
	.st2{fill:#29B6F6;}
	.st3{fill:#616161;}
</style>
<rect x="2" y="12" class="st0" width="21" height="24"/>
<g>
	<rect x="35" y="2" transform="matrix(-1.836970e-016 1 -1 -1.836970e-016 38 -33)" class="st1" width="1" height="1"/>
	<rect x="35" y="4" transform="matrix(-1.836970e-016 1 -1 -1.836970e-016 40 -31)" class="st1" width="1" height="1"/>
	<rect x="35" y="6" transform="matrix(-1.836970e-016 1 -1 -1.836970e-016 42 -29)" class="st1" width="1" height="1"/>
	<rect x="35" y="8" transform="matrix(-1.836970e-016 1 -1 -1.836970e-016 44 -27)" class="st1" width="1" height="1"/>
	<rect x="35" y="10" transform="matrix(-1.836970e-016 1 -1 -1.836970e-016 46 -25)" class="st1" width="1" height="1"/>
	<rect x="35" y="12" transform="matrix(-1.836970e-016 1 -1 -1.836970e-016 48 -23)" class="st1" width="1" height="1"/>
	<rect x="35" y="14" transform="matrix(-1.836970e-016 1 -1 -1.836970e-016 50 -21)" class="st1" width="1" height="1"/>
	<rect x="35" y="16" transform="matrix(-1.836970e-016 1 -1 -1.836970e-016 52 -19)" class="st1" width="1" height="1"/>
	<rect x="35" y="18" transform="matrix(-1.836970e-016 1 -1 -1.836970e-016 54 -17)" class="st1" width="1" height="1"/>
	<rect x="33" y="2" transform="matrix(-1.836970e-016 1 -1 -1.836970e-016 36 -31)" class="st1" width="1" height="1"/>
	<rect x="33" y="4" transform="matrix(-1.836970e-016 1 -1 -1.836970e-016 38 -29)" class="st1" width="1" height="1"/>
	<rect x="33" y="6" transform="matrix(-1.836970e-016 1 -1 -1.836970e-016 40 -27)" class="st1" width="1" height="1"/>
	<rect x="33" y="8" transform="matrix(-1.836970e-016 1 -1 -1.836970e-016 42 -25)" class="st1" width="1" height="1"/>
	<rect x="33" y="10" transform="matrix(-1.836970e-016 1 -1 -1.836970e-016 44 -23)" class="st1" width="1" height="1"/>
	<rect x="33" y="12" transform="matrix(-1.836970e-016 1 -1 -1.836970e-016 46 -21)" class="st1" width="1" height="1"/>
	<rect x="33" y="14" transform="matrix(-1.836970e-016 1 -1 -1.836970e-016 48 -19)" class="st1" width="1" height="1"/>
	<rect x="33" y="16" transform="matrix(-1.836970e-016 1 -1 -1.836970e-016 50 -17)" class="st1" width="1" height="1"/>
	<rect x="33" y="18" transform="matrix(-1.836970e-016 1 -1 -1.836970e-016 52 -15)" class="st1" width="1" height="1"/>
	<rect x="31" y="2" transform="matrix(-1.836970e-016 1 -1 -1.836970e-016 34 -29)" class="st1" width="1" height="1"/>
	<rect x="31" y="4" transform="matrix(-1.836970e-016 1 -1 -1.836970e-016 36 -27)" class="st1" width="1" height="1"/>
	<rect x="31" y="6" transform="matrix(-1.836970e-016 1 -1 -1.836970e-016 38 -25)" class="st1" width="1" height="1"/>
	<rect x="31" y="8" transform="matrix(-1.836970e-016 1 -1 -1.836970e-016 40 -23)" class="st1" width="1" height="1"/>
	<rect x="31" y="10" transform="matrix(-1.836970e-016 1 -1 -1.836970e-016 42 -21)" class="st1" width="1" height="1"/>
	<rect x="31" y="12" transform="matrix(-1.836970e-016 1 -1 -1.836970e-016 44 -19)" class="st1" width="1" height="1"/>
	<rect x="31" y="14" transform="matrix(-1.836970e-016 1 -1 -1.836970e-016 46 -17)" class="st1" width="1" height="1"/>
	<rect x="31" y="16" transform="matrix(-1.836970e-016 1 -1 -1.836970e-016 48 -15)" class="st1" width="1" height="1"/>
	<rect x="31" y="18" transform="matrix(-1.836970e-016 1 -1 -1.836970e-016 50 -13)" class="st1" width="1" height="1"/>
	<rect x="29" y="6" transform="matrix(-1 -1.224647e-016 1.224647e-016 -1 59 13)" class="st1" width="1" height="1"/>
	<rect x="27" y="6" transform="matrix(-1 -1.224647e-016 1.224647e-016 -1 55 13)" class="st1" width="1" height="1"/>
	<rect x="25" y="6" transform="matrix(-1 -1.224647e-016 1.224647e-016 -1 51 13)" class="st1" width="1" height="1"/>
	<rect x="23" y="6" transform="matrix(-1 -1.224647e-016 1.224647e-016 -1 47 13)" class="st1" width="1" height="1"/>
	<rect x="21" y="6" transform="matrix(-1 -1.224647e-016 1.224647e-016 -1 43 13)" class="st1" width="1" height="1"/>
	<rect x="19" y="6" transform="matrix(-1 -1.224647e-016 1.224647e-016 -1 39 13)" class="st1" width="1" height="1"/>
	<rect x="35" y="4" transform="matrix(-1 -1.224647e-016 1.224647e-016 -1 71 9)" class="st1" width="1" height="1"/>
	<rect x="33" y="4" transform="matrix(-1 -1.224647e-016 1.224647e-016 -1 67 9)" class="st1" width="1" height="1"/>
	<rect x="29" y="4" transform="matrix(-1 -1.224647e-016 1.224647e-016 -1 59 9)" class="st1" width="1" height="1"/>
	<rect x="27" y="4" transform="matrix(-1 -1.224647e-016 1.224647e-016 -1 55 9)" class="st1" width="1" height="1"/>
	<rect x="25" y="4" transform="matrix(-1 -1.224647e-016 1.224647e-016 -1 51 9)" class="st1" width="1" height="1"/>
	<rect x="23" y="4" transform="matrix(-1 -1.224647e-016 1.224647e-016 -1 47 9)" class="st1" width="1" height="1"/>
	<rect x="21" y="4" transform="matrix(-1 -1.224647e-016 1.224647e-016 -1 43 9)" class="st1" width="1" height="1"/>
	<rect x="19" y="4" transform="matrix(-1 -1.224647e-016 1.224647e-016 -1 39 9)" class="st1" width="1" height="1"/>
	<rect x="29" y="2" transform="matrix(-1 -1.224647e-016 1.224647e-016 -1 59 5)" class="st1" width="1" height="1"/>
	<rect x="27" y="2" transform="matrix(-1 -1.224647e-016 1.224647e-016 -1 55 5)" class="st1" width="1" height="1"/>
	<rect x="25" y="2" transform="matrix(-1 -1.224647e-016 1.224647e-016 -1 51 5)" class="st1" width="1" height="1"/>
	<rect x="23" y="2" transform="matrix(-1 -1.224647e-016 1.224647e-016 -1 47 5)" class="st1" width="1" height="1"/>
	<rect x="21" y="2" transform="matrix(-1 -1.224647e-016 1.224647e-016 -1 43 5)" class="st1" width="1" height="1"/>
	<rect x="19" y="2" transform="matrix(-1 -1.224647e-016 1.224647e-016 -1 39 5)" class="st1" width="1" height="1"/>
	<rect x="29" y="8" transform="matrix(-1.836970e-016 1 -1 -1.836970e-016 38 -21)" class="st1" width="1" height="1"/>
	<rect x="29" y="10" transform="matrix(-1.836970e-016 1 -1 -1.836970e-016 40 -19)" class="st1" width="1" height="1"/>
	<rect x="27" y="8" transform="matrix(-1.836970e-016 1 -1 -1.836970e-016 36 -19)" class="st1" width="1" height="1"/>
	<rect x="27" y="10" transform="matrix(-1.836970e-016 1 -1 -1.836970e-016 38 -17)" class="st1" width="1" height="1"/>
	<rect x="29" y="10" transform="matrix(-1 -1.224647e-016 1.224647e-016 -1 59 21)" class="st1" width="1" height="1"/>
	<rect x="27" y="10" transform="matrix(-1 -1.224647e-016 1.224647e-016 -1 55 21)" class="st1" width="1" height="1"/>
</g>
<rect x="9" y="17" class="st2" width="7" height="1"/>
<rect x="9" y="20" class="st2" width="14" height="1"/>
<rect x="9" y="23" class="st2" width="14" height="1"/>
<rect x="9" y="26" class="st2" width="14" height="1"/>
<rect x="9" y="29" class="st2" width="14" height="1"/>
<rect x="18" y="11" class="st2" width="4" height="1"/>
<polygon class="st2" points="29,14 21,14 22,15 29,15 "/>
<rect x="24" y="17" class="st2" width="5" height="1"/>
<rect x="24" y="20" class="st2" width="5" height="1"/>
<rect x="24" y="23" class="st2" width="5" height="1"/>
<g>
	<path class="st3" d="M30.4,11L24,4.6C23.6,4.2,23.6,4,23,4h-8.5C13.7,4,13,4.7,13,5.5V10H8.5C7.7,10,7,10.7,7,11.5v21
		C7,33.3,7.7,34,8.5,34h15c0.8,0,1.5-0.7,1.5-1.5V28h4.5c0.8,0,1.5-0.7,1.5-1.5V12C31,11.4,30.8,11.4,30.4,11z M24,6l5,5
		c-1.9,0-4.5,0-4.5,0c-0.3,0-0.5-0.2-0.5-0.5V6z M24,32.5c0,0.3-0.2,0.5-0.5,0.5h-15C8.2,33,8,32.8,8,32.5v-21C8,11.2,8.2,11,8.5,11
		c1,0,8.5,0,8.5,0v5.5c0,0.8,0.7,1.5,1.5,1.5H24C24,18,24,32,24,32.5z M18,16.5V12l5,5c-1.9,0-4.5,0-4.5,0C18.2,17,18,16.8,18,16.5z
		 M30,26.5c0,0.3-0.2,0.5-0.5,0.5H25v-9c0-0.6-0.2-0.6-0.6-1L18,10.6c-0.4-0.4-0.4-0.6-1-0.6h-3V5.5C14,5.2,14.2,5,14.5,5
		c1,0,8.5,0,8.5,0v5.5c0,0.8,0.7,1.5,1.5,1.5H30C30,12,30,26,30,26.5z"/>
</g>
</svg>
