<?xml version="1.0" encoding="utf-8"?>
<!-- Generator: Adobe Illustrator 19.2.0, SVG Export Plug-In . SVG Version: 6.00 Build 0)  -->
<svg version="1.1" id="Outlined_2_" xmlns="http://www.w3.org/2000/svg" xmlns:xlink="http://www.w3.org/1999/xlink" x="0px"
	 y="0px" viewBox="0 0 38 38" style="enable-background:new 0 0 38 38;" xml:space="preserve">
<style type="text/css">
	.st0{fill:#BDBDBD;}
	.st1{opacity:0.15;fill:#616161;}
	.st2{fill:#616161;}
	.st3{fill:none;stroke:#E53935;stroke-miterlimit:10;}
</style>
<g>
	<rect x="35" y="2" transform="matrix(-1.836970e-016 1 -1 -1.836970e-016 38 -33)" class="st0" width="1" height="1"/>
	<rect x="35" y="4" transform="matrix(-1.836970e-016 1 -1 -1.836970e-016 40 -31)" class="st0" width="1" height="1"/>
	<rect x="35" y="6" transform="matrix(-1.836970e-016 1 -1 -1.836970e-016 42 -29)" class="st0" width="1" height="1"/>
	<rect x="35" y="8" transform="matrix(-1.836970e-016 1 -1 -1.836970e-016 44 -27)" class="st0" width="1" height="1"/>
	<rect x="35" y="10" transform="matrix(-1.836970e-016 1 -1 -1.836970e-016 46 -25)" class="st0" width="1" height="1"/>
	<rect x="35" y="12" transform="matrix(-1.836970e-016 1 -1 -1.836970e-016 48 -23)" class="st0" width="1" height="1"/>
	<rect x="35" y="14" transform="matrix(-1.836970e-016 1 -1 -1.836970e-016 50 -21)" class="st0" width="1" height="1"/>
	<rect x="35" y="16" transform="matrix(-1.836970e-016 1 -1 -1.836970e-016 52 -19)" class="st0" width="1" height="1"/>
	<rect x="35" y="18" transform="matrix(-1.836970e-016 1 -1 -1.836970e-016 54 -17)" class="st0" width="1" height="1"/>
	<rect x="33" y="2" transform="matrix(-1.836970e-016 1 -1 -1.836970e-016 36 -31)" class="st0" width="1" height="1"/>
	<rect x="33" y="4" transform="matrix(-1.836970e-016 1 -1 -1.836970e-016 38 -29)" class="st0" width="1" height="1"/>
	<rect x="33" y="6" transform="matrix(-1.836970e-016 1 -1 -1.836970e-016 40 -27)" class="st0" width="1" height="1"/>
	<rect x="33" y="8" transform="matrix(-1.836970e-016 1 -1 -1.836970e-016 42 -25)" class="st0" width="1" height="1"/>
	<rect x="33" y="10" transform="matrix(-1.836970e-016 1 -1 -1.836970e-016 44 -23)" class="st0" width="1" height="1"/>
	<rect x="33" y="12" transform="matrix(-1.836970e-016 1 -1 -1.836970e-016 46 -21)" class="st0" width="1" height="1"/>
	<rect x="33" y="14" transform="matrix(-1.836970e-016 1 -1 -1.836970e-016 48 -19)" class="st0" width="1" height="1"/>
	<rect x="33" y="16" transform="matrix(-1.836970e-016 1 -1 -1.836970e-016 50 -17)" class="st0" width="1" height="1"/>
	<rect x="33" y="18" transform="matrix(-1.836970e-016 1 -1 -1.836970e-016 52 -15)" class="st0" width="1" height="1"/>
	<rect x="31" y="2" transform="matrix(-1.836970e-016 1 -1 -1.836970e-016 34 -29)" class="st0" width="1" height="1"/>
	<rect x="31" y="4" transform="matrix(-1.836970e-016 1 -1 -1.836970e-016 36 -27)" class="st0" width="1" height="1"/>
	<rect x="31" y="6" transform="matrix(-1.836970e-016 1 -1 -1.836970e-016 38 -25)" class="st0" width="1" height="1"/>
	<rect x="31" y="8" transform="matrix(-1.836970e-016 1 -1 -1.836970e-016 40 -23)" class="st0" width="1" height="1"/>
	<rect x="31" y="10" transform="matrix(-1.836970e-016 1 -1 -1.836970e-016 42 -21)" class="st0" width="1" height="1"/>
	<rect x="31" y="12" transform="matrix(-1.836970e-016 1 -1 -1.836970e-016 44 -19)" class="st0" width="1" height="1"/>
	<rect x="31" y="14" transform="matrix(-1.836970e-016 1 -1 -1.836970e-016 46 -17)" class="st0" width="1" height="1"/>
	<rect x="31" y="16" transform="matrix(-1.836970e-016 1 -1 -1.836970e-016 48 -15)" class="st0" width="1" height="1"/>
	<rect x="31" y="18" transform="matrix(-1.836970e-016 1 -1 -1.836970e-016 50 -13)" class="st0" width="1" height="1"/>
	<rect x="29" y="6" transform="matrix(-1 -1.224647e-016 1.224647e-016 -1 59 13)" class="st0" width="1" height="1"/>
	<rect x="27" y="6" transform="matrix(-1 -1.224647e-016 1.224647e-016 -1 55 13)" class="st0" width="1" height="1"/>
	<rect x="25" y="6" transform="matrix(-1 -1.224647e-016 1.224647e-016 -1 51 13)" class="st0" width="1" height="1"/>
	<rect x="23" y="6" transform="matrix(-1 -1.224647e-016 1.224647e-016 -1 47 13)" class="st0" width="1" height="1"/>
	<rect x="21" y="6" transform="matrix(-1 -1.224647e-016 1.224647e-016 -1 43 13)" class="st0" width="1" height="1"/>
	<rect x="19" y="6" transform="matrix(-1 -1.224647e-016 1.224647e-016 -1 39 13)" class="st0" width="1" height="1"/>
	<rect x="35" y="4" transform="matrix(-1 -1.224647e-016 1.224647e-016 -1 71 9)" class="st0" width="1" height="1"/>
	<rect x="33" y="4" transform="matrix(-1 -1.224647e-016 1.224647e-016 -1 67 9)" class="st0" width="1" height="1"/>
	<rect x="29" y="4" transform="matrix(-1 -1.224647e-016 1.224647e-016 -1 59 9)" class="st0" width="1" height="1"/>
	<rect x="27" y="4" transform="matrix(-1 -1.224647e-016 1.224647e-016 -1 55 9)" class="st0" width="1" height="1"/>
	<rect x="25" y="4" transform="matrix(-1 -1.224647e-016 1.224647e-016 -1 51 9)" class="st0" width="1" height="1"/>
	<rect x="23" y="4" transform="matrix(-1 -1.224647e-016 1.224647e-016 -1 47 9)" class="st0" width="1" height="1"/>
	<rect x="21" y="4" transform="matrix(-1 -1.224647e-016 1.224647e-016 -1 43 9)" class="st0" width="1" height="1"/>
	<rect x="19" y="4" transform="matrix(-1 -1.224647e-016 1.224647e-016 -1 39 9)" class="st0" width="1" height="1"/>
	<rect x="29" y="2" transform="matrix(-1 -1.224647e-016 1.224647e-016 -1 59 5)" class="st0" width="1" height="1"/>
	<rect x="27" y="2" transform="matrix(-1 -1.224647e-016 1.224647e-016 -1 55 5)" class="st0" width="1" height="1"/>
	<rect x="25" y="2" transform="matrix(-1 -1.224647e-016 1.224647e-016 -1 51 5)" class="st0" width="1" height="1"/>
	<rect x="23" y="2" transform="matrix(-1 -1.224647e-016 1.224647e-016 -1 47 5)" class="st0" width="1" height="1"/>
	<rect x="21" y="2" transform="matrix(-1 -1.224647e-016 1.224647e-016 -1 43 5)" class="st0" width="1" height="1"/>
	<rect x="19" y="2" transform="matrix(-1 -1.224647e-016 1.224647e-016 -1 39 5)" class="st0" width="1" height="1"/>
	<rect x="29" y="8" transform="matrix(-1.836970e-016 1 -1 -1.836970e-016 38 -21)" class="st0" width="1" height="1"/>
	<rect x="29" y="10" transform="matrix(-1.836970e-016 1 -1 -1.836970e-016 40 -19)" class="st0" width="1" height="1"/>
	<rect x="27" y="8" transform="matrix(-1.836970e-016 1 -1 -1.836970e-016 36 -19)" class="st0" width="1" height="1"/>
	<rect x="27" y="10" transform="matrix(-1.836970e-016 1 -1 -1.836970e-016 38 -17)" class="st0" width="1" height="1"/>
	<rect x="29" y="10" transform="matrix(-1 -1.224647e-016 1.224647e-016 -1 59 21)" class="st0" width="1" height="1"/>
	<rect x="27" y="10" transform="matrix(-1 -1.224647e-016 1.224647e-016 -1 55 21)" class="st0" width="1" height="1"/>
</g>
<rect x="2" y="21" class="st1" width="23" height="15"/>
<g>
	<path class="st2" d="M23,14h-2V9h2V14z"/>
	<rect x="21" y="9" class="st2" width="2" height="5"/>
</g>
<g>
	<path class="st2" d="M12,20h14v9h1v-9c0-0.6-0.4-1-1-1H12c-0.6,0-1,0.4-1,1v9h1V20z"/>
</g>
<g>
	<path class="st2" d="M24,15h-9V9h-1v6c0,0.6,0.4,1,1,1h9c0.6,0,1-0.4,1-1V9h-1V15z"/>
	<path class="st2" d="M30.7,9.8l-2.5-2.5C28,7.1,27.8,7,27.5,7H8C7.4,7,7,7.4,7,8v22c0,0.6,0.4,1,1,1h22c0.6,0,1-0.4,1-1V10.5
		C31,10.2,30.9,10,30.7,9.8z M30,30h-2h-1h-1H12h-1H8V8h6h1h9h1h2.5l2.5,2.5V30z"/>
</g>
<path class="st3" d="M32,24c1.3,3.3,1.3,6.2-0.3,7.7c-3.1,3.1-11.4,0-18.4-7.1c-7-7-10.2-15.3-7.1-18.4C7.8,4.7,10.7,4.7,14,6"/>
</svg>
