<?xml version="1.0" encoding="utf-8"?>
<!-- Generator: Adobe Illustrator 19.2.0, SVG Export Plug-In . SVG Version: 6.00 Build 0)  -->
<svg version="1.1" id="Outlined_2_" xmlns="http://www.w3.org/2000/svg" xmlns:xlink="http://www.w3.org/1999/xlink" x="0px"
	 y="0px" viewBox="0 0 38 38" style="enable-background:new 0 0 38 38;" xml:space="preserve">
<style type="text/css">
	.st0{fill:#BDBDBD;}
	.st1{fill:#616161;}
	.st2{opacity:0.15;fill:#616161;}
</style>
<g>
	<rect x="2" y="35" transform="matrix(6.123234e-017 -1 1 6.123234e-017 -33 38)" class="st0" width="1" height="1"/>
	<rect x="2" y="33" transform="matrix(6.123234e-017 -1 1 6.123234e-017 -31 36)" class="st0" width="1" height="1"/>
	<rect x="2" y="31" transform="matrix(6.123234e-017 -1 1 6.123234e-017 -29 34)" class="st0" width="1" height="1"/>
	<rect x="2" y="29" transform="matrix(6.123234e-017 -1 1 6.123234e-017 -27 32)" class="st0" width="1" height="1"/>
	<rect x="2" y="27" transform="matrix(6.123234e-017 -1 1 6.123234e-017 -25 30)" class="st0" width="1" height="1"/>
	<rect x="2" y="25" transform="matrix(6.123234e-017 -1 1 6.123234e-017 -23 28)" class="st0" width="1" height="1"/>
	<rect x="2" y="23" transform="matrix(6.123234e-017 -1 1 6.123234e-017 -21 26)" class="st0" width="1" height="1"/>
	<rect x="2" y="21" transform="matrix(6.123234e-017 -1 1 6.123234e-017 -19 24)" class="st0" width="1" height="1"/>
	<rect x="2" y="19" transform="matrix(6.123234e-017 -1 1 6.123234e-017 -17 22)" class="st0" width="1" height="1"/>
	<rect x="4" y="35" transform="matrix(6.123234e-017 -1 1 6.123234e-017 -31 40)" class="st0" width="1" height="1"/>
	<rect x="4" y="33" transform="matrix(6.123234e-017 -1 1 6.123234e-017 -29 38)" class="st0" width="1" height="1"/>
	<rect x="4" y="31" transform="matrix(6.123234e-017 -1 1 6.123234e-017 -27 36)" class="st0" width="1" height="1"/>
	<rect x="4" y="29" transform="matrix(6.123234e-017 -1 1 6.123234e-017 -25 34)" class="st0" width="1" height="1"/>
	<rect x="4" y="27" transform="matrix(6.123234e-017 -1 1 6.123234e-017 -23 32)" class="st0" width="1" height="1"/>
	<rect x="4" y="25" transform="matrix(6.123234e-017 -1 1 6.123234e-017 -21 30)" class="st0" width="1" height="1"/>
	<rect x="4" y="23" transform="matrix(6.123234e-017 -1 1 6.123234e-017 -19 28)" class="st0" width="1" height="1"/>
	<rect x="4" y="21" transform="matrix(6.123234e-017 -1 1 6.123234e-017 -17 26)" class="st0" width="1" height="1"/>
	<rect x="4" y="19" transform="matrix(6.123234e-017 -1 1 6.123234e-017 -15 24)" class="st0" width="1" height="1"/>
	<rect x="6" y="35" transform="matrix(6.123234e-017 -1 1 6.123234e-017 -29 42)" class="st0" width="1" height="1"/>
	<rect x="6" y="33" transform="matrix(6.123234e-017 -1 1 6.123234e-017 -27 40)" class="st0" width="1" height="1"/>
	<rect x="6" y="31" transform="matrix(6.123234e-017 -1 1 6.123234e-017 -25 38)" class="st0" width="1" height="1"/>
	<rect x="6" y="29" transform="matrix(6.123234e-017 -1 1 6.123234e-017 -23 36)" class="st0" width="1" height="1"/>
	<rect x="6" y="27" transform="matrix(6.123234e-017 -1 1 6.123234e-017 -21 34)" class="st0" width="1" height="1"/>
	<rect x="6" y="25" transform="matrix(6.123234e-017 -1 1 6.123234e-017 -19 32)" class="st0" width="1" height="1"/>
	<rect x="6" y="23" transform="matrix(6.123234e-017 -1 1 6.123234e-017 -17 30)" class="st0" width="1" height="1"/>
	<rect x="6" y="21" transform="matrix(6.123234e-017 -1 1 6.123234e-017 -15 28)" class="st0" width="1" height="1"/>
	<rect x="6" y="19" transform="matrix(6.123234e-017 -1 1 6.123234e-017 -13 26)" class="st0" width="1" height="1"/>
	<rect x="8" y="31" class="st0" width="1" height="1"/>
	<rect x="10" y="31" class="st0" width="1" height="1"/>
	<rect x="12" y="31" class="st0" width="1" height="1"/>
	<rect x="14" y="31" class="st0" width="1" height="1"/>
	<rect x="16" y="31" class="st0" width="1" height="1"/>
	<rect x="18" y="31" class="st0" width="1" height="1"/>
	<rect x="2" y="33" class="st0" width="1" height="1"/>
	<rect x="4" y="33" class="st0" width="1" height="1"/>
	<rect x="8" y="33" class="st0" width="1" height="1"/>
	<rect x="10" y="33" class="st0" width="1" height="1"/>
	<rect x="12" y="33" class="st0" width="1" height="1"/>
	<rect x="14" y="33" class="st0" width="1" height="1"/>
	<rect x="16" y="33" class="st0" width="1" height="1"/>
	<rect x="18" y="33" class="st0" width="1" height="1"/>
	<rect x="8" y="35" class="st0" width="1" height="1"/>
	<rect x="10" y="35" class="st0" width="1" height="1"/>
	<rect x="12" y="35" class="st0" width="1" height="1"/>
	<rect x="14" y="35" class="st0" width="1" height="1"/>
	<rect x="16" y="35" class="st0" width="1" height="1"/>
	<rect x="18" y="35" class="st0" width="1" height="1"/>
	<rect x="8" y="29" transform="matrix(6.123234e-017 -1 1 6.123234e-017 -21 38)" class="st0" width="1" height="1"/>
	<rect x="8" y="27" transform="matrix(6.123234e-017 -1 1 6.123234e-017 -19 36)" class="st0" width="1" height="1"/>
	<rect x="10" y="29" transform="matrix(6.123234e-017 -1 1 6.123234e-017 -19 40)" class="st0" width="1" height="1"/>
	<rect x="10" y="27" transform="matrix(6.123234e-017 -1 1 6.123234e-017 -17 38)" class="st0" width="1" height="1"/>
	<rect x="8" y="27" class="st0" width="1" height="1"/>
	<rect x="10" y="27" class="st0" width="1" height="1"/>
</g>
<path class="st1" d="M19,5.5L6,13v17h26V13L19,5.5z M19,6.7l11.8,6.8L23.3,21h-8.6l-7.5-7.5L19,6.7z M31,16.7v11.6l-5.8-5.8
	l-0.7,0.7l5.8,5.8H7.8l5.8-5.8l-0.7-0.7L7,28.3V14.7l7.3,7.3h0.5h8.5h0.5l0.5-0.5l6.8-6.8V16.7z"/>
<rect x="19" y="2" class="st2" width="17" height="25"/>
</svg>
