<?xml version="1.0" encoding="utf-8"?>
<!-- Generator: Adobe Illustrator 19.2.0, SVG Export Plug-In . SVG Version: 6.00 Build 0)  -->
<svg version="1.1" id="Outlined_2_" xmlns="http://www.w3.org/2000/svg" xmlns:xlink="http://www.w3.org/1999/xlink" x="0px"
	 y="0px" viewBox="0 0 38 38" style="enable-background:new 0 0 38 38;" xml:space="preserve">
<style type="text/css">
	.st0{fill:#BDBDBD;}
	.st1{fill:#616161;}
	.st2{opacity:0.15;fill:#616161;}
	.st3{fill:#7CB342;}
</style>
<g>
	<rect x="2" y="2" class="st0" width="1" height="1"/>
	<rect x="4" y="2" class="st0" width="1" height="1"/>
	<rect x="6" y="2" class="st0" width="1" height="1"/>
	<rect x="8" y="2" class="st0" width="1" height="1"/>
	<rect x="10" y="2" class="st0" width="1" height="1"/>
	<rect x="12" y="2" class="st0" width="1" height="1"/>
	<rect x="14" y="2" class="st0" width="1" height="1"/>
	<rect x="16" y="2" class="st0" width="1" height="1"/>
	<rect x="18" y="2" class="st0" width="1" height="1"/>
	<rect x="2" y="4" class="st0" width="1" height="1"/>
	<rect x="4" y="4" class="st0" width="1" height="1"/>
	<rect x="6" y="4" class="st0" width="1" height="1"/>
	<rect x="8" y="4" class="st0" width="1" height="1"/>
	<rect x="10" y="4" class="st0" width="1" height="1"/>
	<rect x="12" y="4" class="st0" width="1" height="1"/>
	<rect x="14" y="4" class="st0" width="1" height="1"/>
	<rect x="16" y="4" class="st0" width="1" height="1"/>
	<rect x="18" y="4" class="st0" width="1" height="1"/>
	<rect x="2" y="6" class="st0" width="1" height="1"/>
	<rect x="4" y="6" class="st0" width="1" height="1"/>
	<rect x="6" y="6" class="st0" width="1" height="1"/>
	<rect x="8" y="6" class="st0" width="1" height="1"/>
	<rect x="10" y="6" class="st0" width="1" height="1"/>
	<rect x="12" y="6" class="st0" width="1" height="1"/>
	<rect x="14" y="6" class="st0" width="1" height="1"/>
	<rect x="16" y="6" class="st0" width="1" height="1"/>
	<rect x="18" y="6" class="st0" width="1" height="1"/>
	<rect x="6" y="8" transform="matrix(-1.836970e-016 1 -1 -1.836970e-016 15 2)" class="st0" width="1" height="1"/>
	<rect x="6" y="10" transform="matrix(-1.836970e-016 1 -1 -1.836970e-016 17 4)" class="st0" width="1" height="1"/>
	<rect x="6" y="12" transform="matrix(-1.836970e-016 1 -1 -1.836970e-016 19 6)" class="st0" width="1" height="1"/>
	<rect x="6" y="14" transform="matrix(-1.836970e-016 1 -1 -1.836970e-016 21 8)" class="st0" width="1" height="1"/>
	<rect x="6" y="16" transform="matrix(-1.836970e-016 1 -1 -1.836970e-016 23 10)" class="st0" width="1" height="1"/>
	<rect x="6" y="18" transform="matrix(-1.836970e-016 1 -1 -1.836970e-016 25 12)" class="st0" width="1" height="1"/>
	<rect x="4" y="2" transform="matrix(-1.836970e-016 1 -1 -1.836970e-016 7 -2)" class="st0" width="1" height="1"/>
	<rect x="4" y="4" transform="matrix(-1.836970e-016 1 -1 -1.836970e-016 9 8.881784e-016)" class="st0" width="1" height="1"/>
	<rect x="4" y="8" transform="matrix(-1.836970e-016 1 -1 -1.836970e-016 13 4)" class="st0" width="1" height="1"/>
	<rect x="4" y="10" transform="matrix(-1.836970e-016 1 -1 -1.836970e-016 15 6)" class="st0" width="1" height="1"/>
	<rect x="4" y="12" transform="matrix(-1.836970e-016 1 -1 -1.836970e-016 17 8)" class="st0" width="1" height="1"/>
	<rect x="4" y="14" transform="matrix(-1.836970e-016 1 -1 -1.836970e-016 19 10)" class="st0" width="1" height="1"/>
	<rect x="4" y="16" transform="matrix(-1.836970e-016 1 -1 -1.836970e-016 21 12)" class="st0" width="1" height="1"/>
	<rect x="4" y="18" transform="matrix(-1.836970e-016 1 -1 -1.836970e-016 23 14)" class="st0" width="1" height="1"/>
	<rect x="2" y="8" transform="matrix(-1.836970e-016 1 -1 -1.836970e-016 11 6)" class="st0" width="1" height="1"/>
	<rect x="2" y="10" transform="matrix(-1.836970e-016 1 -1 -1.836970e-016 13 8)" class="st0" width="1" height="1"/>
	<rect x="2" y="12" transform="matrix(-1.836970e-016 1 -1 -1.836970e-016 15 10)" class="st0" width="1" height="1"/>
	<rect x="2" y="14" transform="matrix(-1.836970e-016 1 -1 -1.836970e-016 17 12)" class="st0" width="1" height="1"/>
	<rect x="2" y="16" transform="matrix(-1.836970e-016 1 -1 -1.836970e-016 19 14)" class="st0" width="1" height="1"/>
	<rect x="2" y="18" transform="matrix(-1.836970e-016 1 -1 -1.836970e-016 21 16)" class="st0" width="1" height="1"/>
	<rect x="8" y="8" class="st0" width="1" height="1"/>
	<rect x="10" y="8" class="st0" width="1" height="1"/>
	<rect x="8" y="10" class="st0" width="1" height="1"/>
	<rect x="10" y="10" class="st0" width="1" height="1"/>
	<rect x="10" y="8" transform="matrix(-1.836970e-016 1 -1 -1.836970e-016 19 -2)" class="st0" width="1" height="1"/>
	<rect x="10" y="10" transform="matrix(-1.836970e-016 1 -1 -1.836970e-016 21 1.776357e-015)" class="st0" width="1" height="1"/>
</g>
<g>
	<path class="st1" d="M33,31c0-4.8-3.1-8.9-7.5-10.4L22,24.1l-3.5-3.5c-1.5,0.5-2.9,1.3-4,2.4H6.1c0.5-3.4,3.4-6,6.9-6v-1
		c-2.2,0-4-1.8-4-4s1.8-4,4-4c1,0,2,0.4,2.7,1l0.7-0.7C15.4,7.5,14.3,7,13,7c-2.8,0-5,2.2-5,5c0,1.9,1.1,3.5,2.6,4.4
		C7.4,17.4,5,20.4,5,24h8.5c-1.6,1.9-2.5,4.3-2.5,7H33z M18.2,21.7l3.8,3.8l3.8-3.8c3.4,1.4,5.8,4.5,6.2,8.3H12.1
		C12.4,26.2,14.9,23.1,18.2,21.7z"/>
</g>
<rect x="19" y="12" class="st2" width="17" height="24"/>
<g>
	<g>
		<path class="st3" d="M22,9c2.8,0,5,2.2,5,5s-2.2,5-5,5s-5-2.2-5-5S19.2,9,22,9 M22,8c-3.3,0-6,2.7-6,6s2.7,6,6,6s6-2.7,6-6
			S25.3,8,22,8L22,8z"/>
	</g>
</g>
</svg>
