<?xml version="1.0" encoding="utf-8"?>
<!-- Generator: Adobe Illustrator 19.2.0, SVG Export Plug-In . SVG Version: 6.00 Build 0)  -->
<svg version="1.1" id="Outlined_2_" xmlns="http://www.w3.org/2000/svg" xmlns:xlink="http://www.w3.org/1999/xlink" x="0px"
	 y="0px" viewBox="0 0 38 38" style="enable-background:new 0 0 38 38;" xml:space="preserve">
<style type="text/css">
	.st0{opacity:0.15;fill:#616161;}
	.st1{fill:#BDBDBD;}
	.st2{fill:#616161;}
	.st3{fill:#FB8C00;}
</style>
<rect x="2" y="17" class="st0" width="12" height="19"/>
<g>
	<rect x="35" y="2" transform="matrix(-1.836970e-016 1 -1 -1.836970e-016 38 -33)" class="st1" width="1" height="1"/>
	<rect x="35" y="4" transform="matrix(-1.836970e-016 1 -1 -1.836970e-016 40 -31)" class="st1" width="1" height="1"/>
	<rect x="35" y="6" transform="matrix(-1.836970e-016 1 -1 -1.836970e-016 42 -29)" class="st1" width="1" height="1"/>
	<rect x="35" y="8" transform="matrix(-1.836970e-016 1 -1 -1.836970e-016 44 -27)" class="st1" width="1" height="1"/>
	<rect x="35" y="10" transform="matrix(-1.836970e-016 1 -1 -1.836970e-016 46 -25)" class="st1" width="1" height="1"/>
	<rect x="35" y="12" transform="matrix(-1.836970e-016 1 -1 -1.836970e-016 48 -23)" class="st1" width="1" height="1"/>
	<rect x="35" y="14" transform="matrix(-1.836970e-016 1 -1 -1.836970e-016 50 -21)" class="st1" width="1" height="1"/>
	<rect x="35" y="16" transform="matrix(-1.836970e-016 1 -1 -1.836970e-016 52 -19)" class="st1" width="1" height="1"/>
	<rect x="35" y="18" transform="matrix(-1.836970e-016 1 -1 -1.836970e-016 54 -17)" class="st1" width="1" height="1"/>
	<rect x="33" y="2" transform="matrix(-1.836970e-016 1 -1 -1.836970e-016 36 -31)" class="st1" width="1" height="1"/>
	<rect x="33" y="4" transform="matrix(-1.836970e-016 1 -1 -1.836970e-016 38 -29)" class="st1" width="1" height="1"/>
	<rect x="33" y="6" transform="matrix(-1.836970e-016 1 -1 -1.836970e-016 40 -27)" class="st1" width="1" height="1"/>
	<rect x="33" y="8" transform="matrix(-1.836970e-016 1 -1 -1.836970e-016 42 -25)" class="st1" width="1" height="1"/>
	<rect x="33" y="10" transform="matrix(-1.836970e-016 1 -1 -1.836970e-016 44 -23)" class="st1" width="1" height="1"/>
	<rect x="33" y="12" transform="matrix(-1.836970e-016 1 -1 -1.836970e-016 46 -21)" class="st1" width="1" height="1"/>
	<rect x="33" y="14" transform="matrix(-1.836970e-016 1 -1 -1.836970e-016 48 -19)" class="st1" width="1" height="1"/>
	<rect x="33" y="16" transform="matrix(-1.836970e-016 1 -1 -1.836970e-016 50 -17)" class="st1" width="1" height="1"/>
	<rect x="33" y="18" transform="matrix(-1.836970e-016 1 -1 -1.836970e-016 52 -15)" class="st1" width="1" height="1"/>
	<rect x="31" y="2" transform="matrix(-1.836970e-016 1 -1 -1.836970e-016 34 -29)" class="st1" width="1" height="1"/>
	<rect x="31" y="4" transform="matrix(-1.836970e-016 1 -1 -1.836970e-016 36 -27)" class="st1" width="1" height="1"/>
	<rect x="31" y="6" transform="matrix(-1.836970e-016 1 -1 -1.836970e-016 38 -25)" class="st1" width="1" height="1"/>
	<rect x="31" y="8" transform="matrix(-1.836970e-016 1 -1 -1.836970e-016 40 -23)" class="st1" width="1" height="1"/>
	<rect x="31" y="10" transform="matrix(-1.836970e-016 1 -1 -1.836970e-016 42 -21)" class="st1" width="1" height="1"/>
	<rect x="31" y="12" transform="matrix(-1.836970e-016 1 -1 -1.836970e-016 44 -19)" class="st1" width="1" height="1"/>
	<rect x="31" y="14" transform="matrix(-1.836970e-016 1 -1 -1.836970e-016 46 -17)" class="st1" width="1" height="1"/>
	<rect x="31" y="16" transform="matrix(-1.836970e-016 1 -1 -1.836970e-016 48 -15)" class="st1" width="1" height="1"/>
	<rect x="31" y="18" transform="matrix(-1.836970e-016 1 -1 -1.836970e-016 50 -13)" class="st1" width="1" height="1"/>
	<rect x="29" y="6" transform="matrix(-1 -1.224647e-016 1.224647e-016 -1 59 13)" class="st1" width="1" height="1"/>
	<rect x="27" y="6" transform="matrix(-1 -1.224647e-016 1.224647e-016 -1 55 13)" class="st1" width="1" height="1"/>
	<rect x="25" y="6" transform="matrix(-1 -1.224647e-016 1.224647e-016 -1 51 13)" class="st1" width="1" height="1"/>
	<rect x="23" y="6" transform="matrix(-1 -1.224647e-016 1.224647e-016 -1 47 13)" class="st1" width="1" height="1"/>
	<rect x="21" y="6" transform="matrix(-1 -1.224647e-016 1.224647e-016 -1 43 13)" class="st1" width="1" height="1"/>
	<rect x="19" y="6" transform="matrix(-1 -1.224647e-016 1.224647e-016 -1 39 13)" class="st1" width="1" height="1"/>
	<rect x="35" y="4" transform="matrix(-1 -1.224647e-016 1.224647e-016 -1 71 9)" class="st1" width="1" height="1"/>
	<rect x="33" y="4" transform="matrix(-1 -1.224647e-016 1.224647e-016 -1 67 9)" class="st1" width="1" height="1"/>
	<rect x="29" y="4" transform="matrix(-1 -1.224647e-016 1.224647e-016 -1 59 9)" class="st1" width="1" height="1"/>
	<rect x="27" y="4" transform="matrix(-1 -1.224647e-016 1.224647e-016 -1 55 9)" class="st1" width="1" height="1"/>
	<rect x="25" y="4" transform="matrix(-1 -1.224647e-016 1.224647e-016 -1 51 9)" class="st1" width="1" height="1"/>
	<rect x="23" y="4" transform="matrix(-1 -1.224647e-016 1.224647e-016 -1 47 9)" class="st1" width="1" height="1"/>
	<rect x="21" y="4" transform="matrix(-1 -1.224647e-016 1.224647e-016 -1 43 9)" class="st1" width="1" height="1"/>
	<rect x="19" y="4" transform="matrix(-1 -1.224647e-016 1.224647e-016 -1 39 9)" class="st1" width="1" height="1"/>
	<rect x="29" y="2" transform="matrix(-1 -1.224647e-016 1.224647e-016 -1 59 5)" class="st1" width="1" height="1"/>
	<rect x="27" y="2" transform="matrix(-1 -1.224647e-016 1.224647e-016 -1 55 5)" class="st1" width="1" height="1"/>
	<rect x="25" y="2" transform="matrix(-1 -1.224647e-016 1.224647e-016 -1 51 5)" class="st1" width="1" height="1"/>
	<rect x="23" y="2" transform="matrix(-1 -1.224647e-016 1.224647e-016 -1 47 5)" class="st1" width="1" height="1"/>
	<rect x="21" y="2" transform="matrix(-1 -1.224647e-016 1.224647e-016 -1 43 5)" class="st1" width="1" height="1"/>
	<rect x="19" y="2" transform="matrix(-1 -1.224647e-016 1.224647e-016 -1 39 5)" class="st1" width="1" height="1"/>
	<rect x="29" y="8" transform="matrix(-1.836970e-016 1 -1 -1.836970e-016 38 -21)" class="st1" width="1" height="1"/>
	<rect x="29" y="10" transform="matrix(-1.836970e-016 1 -1 -1.836970e-016 40 -19)" class="st1" width="1" height="1"/>
	<rect x="27" y="8" transform="matrix(-1.836970e-016 1 -1 -1.836970e-016 36 -19)" class="st1" width="1" height="1"/>
	<rect x="27" y="10" transform="matrix(-1.836970e-016 1 -1 -1.836970e-016 38 -17)" class="st1" width="1" height="1"/>
	<rect x="29" y="10" transform="matrix(-1 -1.224647e-016 1.224647e-016 -1 59 21)" class="st1" width="1" height="1"/>
	<rect x="27" y="10" transform="matrix(-1 -1.224647e-016 1.224647e-016 -1 55 21)" class="st1" width="1" height="1"/>
</g>
<g>
	<path class="st2" d="M29,19c0-1.1-0.9-2-2-2h-7.1c-0.6,0-0.8-0.1-0.8-0.2c-0.1-0.1-0.1-0.3,0-0.6c0.2-0.8,0.5-1.5,0.9-2.2
		c0.6-1.3,1-3.1,1-5.2c0-1-0.7-1.8-1.8-1.8l-0.1,0c-0.8,0-1.5,0.6-1.8,1.4c-2.3,6.1-2,2.9-4.7,7.1c-2,3.1-2.6,4.7-2.6,4.7L10,20.3
		v8.1l0.3,0.3c0.1,0.1,2.3,2.3,6.2,2.3c2.7,0,4.8-0.3,6.5-0.6c0.6-0.1,0.8-0.2,1.5-0.4c1-0.2,2.3-0.9,2.5-1.8c0.1-0.5,0-1.2-0.4-1.2
		c0.9-0.2,1.4-1,1.4-2c0-0.4-0.1-0.8-0.3-1.1c0.8-0.3,1.3-1,1.3-1.9c0-0.6-0.3-1.1-0.7-1.5C28.7,20.1,29,19.6,29,19z M24.4,21H27
		c0.6,0,1,0.4,1,1c0,0.5-0.4,1-1,1h-2.6c-0.5,0-0.5,1,0,1H26c0.6,0,1,0.4,1,1c0,0.6-0.4,1-1,1h-2.6c-0.5,0-0.5,1,0,1h2
		c0,0,0.6,0,0.6,1c0,0.6-1.1,0.9-1.6,1c-3,0.5-4.4,1-7.9,1S11,28,11,28v-7.5c0,0,0.5-1.5,2.5-4.5c2.4-3.7,2.5-1,4.8-7.3
		c0.1-0.4,0.4-0.7,0.9-0.7C19.7,8,20,8.4,20,8.8c-0.1,2.7-1.3,4.9-1.9,7.2c-0.3,1.1,0.1,2.1,1.8,2.1H27c0.6,0,1,0.4,1,1
		c0,0.6-0.4,1-1,1h-2.6C23.9,20,23.9,21,24.4,21z"/>
</g>
<rect x="8" y="20" class="st3" width="1" height="9"/>
</svg>
