<?xml version="1.0" encoding="utf-8"?>
<!-- Generator: Adobe Illustrator 19.2.0, SVG Export Plug-In . SVG Version: 6.00 Build 0)  -->
<svg version="1.1" id="Outlined_2_" xmlns="http://www.w3.org/2000/svg" xmlns:xlink="http://www.w3.org/1999/xlink" x="0px"
	 y="0px" viewBox="0 0 38 38" style="enable-background:new 0 0 38 38;" xml:space="preserve">
<style type="text/css">
	.st0{opacity:0.15;fill:#616161;}
	.st1{fill:#BDBDBD;}
	.st2{fill:#616161;}
	.st3{fill:#FB8C00;}
</style>
<rect x="16" y="26" class="st0" width="20" height="10"/>
<g>
	<rect x="2" y="2" class="st1" width="1" height="1"/>
	<rect x="4" y="2" class="st1" width="1" height="1"/>
	<rect x="6" y="2" class="st1" width="1" height="1"/>
	<rect x="8" y="2" class="st1" width="1" height="1"/>
	<rect x="10" y="2" class="st1" width="1" height="1"/>
	<rect x="12" y="2" class="st1" width="1" height="1"/>
	<rect x="14" y="2" class="st1" width="1" height="1"/>
	<rect x="16" y="2" class="st1" width="1" height="1"/>
	<rect x="18" y="2" class="st1" width="1" height="1"/>
	<rect x="2" y="4" class="st1" width="1" height="1"/>
	<rect x="4" y="4" class="st1" width="1" height="1"/>
	<rect x="6" y="4" class="st1" width="1" height="1"/>
	<rect x="8" y="4" class="st1" width="1" height="1"/>
	<rect x="10" y="4" class="st1" width="1" height="1"/>
	<rect x="12" y="4" class="st1" width="1" height="1"/>
	<rect x="14" y="4" class="st1" width="1" height="1"/>
	<rect x="16" y="4" class="st1" width="1" height="1"/>
	<rect x="18" y="4" class="st1" width="1" height="1"/>
	<rect x="2" y="6" class="st1" width="1" height="1"/>
	<rect x="4" y="6" class="st1" width="1" height="1"/>
	<rect x="6" y="6" class="st1" width="1" height="1"/>
	<rect x="8" y="6" class="st1" width="1" height="1"/>
	<rect x="10" y="6" class="st1" width="1" height="1"/>
	<rect x="12" y="6" class="st1" width="1" height="1"/>
	<rect x="14" y="6" class="st1" width="1" height="1"/>
	<rect x="16" y="6" class="st1" width="1" height="1"/>
	<rect x="18" y="6" class="st1" width="1" height="1"/>
	<rect x="6" y="8" transform="matrix(-1.836970e-016 1 -1 -1.836970e-016 15 2)" class="st1" width="1" height="1"/>
	<rect x="6" y="10" transform="matrix(-1.836970e-016 1 -1 -1.836970e-016 17 4)" class="st1" width="1" height="1"/>
	<rect x="6" y="12" transform="matrix(-1.836970e-016 1 -1 -1.836970e-016 19 6)" class="st1" width="1" height="1"/>
	<rect x="6" y="14" transform="matrix(-1.836970e-016 1 -1 -1.836970e-016 21 8)" class="st1" width="1" height="1"/>
	<rect x="6" y="16" transform="matrix(-1.836970e-016 1 -1 -1.836970e-016 23 10)" class="st1" width="1" height="1"/>
	<rect x="6" y="18" transform="matrix(-1.836970e-016 1 -1 -1.836970e-016 25 12)" class="st1" width="1" height="1"/>
	<rect x="4" y="2" transform="matrix(-1.836970e-016 1 -1 -1.836970e-016 7 -2)" class="st1" width="1" height="1"/>
	<rect x="4" y="4" transform="matrix(-1.836970e-016 1 -1 -1.836970e-016 9 8.881784e-016)" class="st1" width="1" height="1"/>
	<rect x="4" y="8" transform="matrix(-1.836970e-016 1 -1 -1.836970e-016 13 4)" class="st1" width="1" height="1"/>
	<rect x="4" y="10" transform="matrix(-1.836970e-016 1 -1 -1.836970e-016 15 6)" class="st1" width="1" height="1"/>
	<rect x="4" y="12" transform="matrix(-1.836970e-016 1 -1 -1.836970e-016 17 8)" class="st1" width="1" height="1"/>
	<rect x="4" y="14" transform="matrix(-1.836970e-016 1 -1 -1.836970e-016 19 10)" class="st1" width="1" height="1"/>
	<rect x="4" y="16" transform="matrix(-1.836970e-016 1 -1 -1.836970e-016 21 12)" class="st1" width="1" height="1"/>
	<rect x="4" y="18" transform="matrix(-1.836970e-016 1 -1 -1.836970e-016 23 14)" class="st1" width="1" height="1"/>
	<rect x="2" y="8" transform="matrix(-1.836970e-016 1 -1 -1.836970e-016 11 6)" class="st1" width="1" height="1"/>
	<rect x="2" y="10" transform="matrix(-1.836970e-016 1 -1 -1.836970e-016 13 8)" class="st1" width="1" height="1"/>
	<rect x="2" y="12" transform="matrix(-1.836970e-016 1 -1 -1.836970e-016 15 10)" class="st1" width="1" height="1"/>
	<rect x="2" y="14" transform="matrix(-1.836970e-016 1 -1 -1.836970e-016 17 12)" class="st1" width="1" height="1"/>
	<rect x="2" y="16" transform="matrix(-1.836970e-016 1 -1 -1.836970e-016 19 14)" class="st1" width="1" height="1"/>
	<rect x="2" y="18" transform="matrix(-1.836970e-016 1 -1 -1.836970e-016 21 16)" class="st1" width="1" height="1"/>
	<rect x="8" y="8" class="st1" width="1" height="1"/>
	<rect x="10" y="8" class="st1" width="1" height="1"/>
	<rect x="8" y="10" class="st1" width="1" height="1"/>
	<rect x="10" y="10" class="st1" width="1" height="1"/>
	<rect x="10" y="8" transform="matrix(-1.836970e-016 1 -1 -1.836970e-016 19 -2)" class="st1" width="1" height="1"/>
	<rect x="10" y="10" transform="matrix(-1.836970e-016 1 -1 -1.836970e-016 21 1.776357e-015)" class="st1" width="1" height="1"/>
</g>
<g>
	<path class="st2" d="M18.3,29h8.1l0.3-0.3c0.1-0.1,2.3-2.3,2.3-6.2c0-2.7-0.3-4.3-0.6-6c-0.1-0.6-0.2-1.3-0.4-2
		c-0.2-1-0.9-2.2-1.8-2.3c-0.5-0.1-0.9,0.1-1.2,0.2c-0.3-0.8-1-1.3-2-1.3c-0.4,0-0.8,0.1-1.1,0.3c-0.3-0.8-1-1.3-1.9-1.3
		c-0.4,0-0.7,0.1-1,0.3c0,0,0-3.8,0-4.3c0-1.1-0.9-2-2-2c-1.1,0-2,0.9-2,2v13.1c0,0.6-0.1,0.8-0.2,0.8c-0.1,0.1-0.1,0.1-0.4,0
		c-0.9-0.3-1.2-3.8-3.5-5.6c-0.8-0.6-1.9-0.5-2.5,0.3l-0.1,0.1c-0.5,0.7-0.4,1.4,0,2.3c3.1,5.7,0.9,6.7,5.1,9.3
		c3.1,2,4.7,2.6,4.7,2.6L18.3,29z M9.2,16.4c-0.2-0.4-0.3-0.8,0-1.2c0.3-0.4,0.8-0.4,1.2-0.2c2.2,1.7,2.2,5.2,3.9,5.8
		c0.9,0.3,1.7-0.1,1.7-1.9V6c0-0.6,0.4-1,1-1c0.6,0,1,0.4,1,1v8.6c0,0.5,1,0.5,1,0V12c0-0.6,0.4-1,1-1c0.5,0,1,0.4,1,1v2.6
		c0,0.5,1,0.5,1,0V13c0-0.6,0.4-1,1-1c0.6,0,1,0.4,1,1v2.6c0,0.5,1,0.5,1,0v-2.4c0,0,0.5-0.2,1-0.1c0.5,0.1,0.9,1,1,1.5
		c0.5,3,1,4.4,1,7.9S26,28,26,28h-7.5c0,0-1.5-0.5-4.5-2.5C10.3,23.1,12.5,22.3,9.2,16.4z"/>
</g>
<rect x="18" y="30" class="st3" width="9" height="1"/>
</svg>
