<?xml version="1.0" encoding="utf-8"?>
<!-- Generator: Adobe Illustrator 19.2.0, SVG Export Plug-In . SVG Version: 6.00 Build 0)  -->
<svg version="1.1" id="Outlined_2_" xmlns="http://www.w3.org/2000/svg" xmlns:xlink="http://www.w3.org/1999/xlink" x="0px"
	 y="0px" viewBox="0 0 38 38" style="enable-background:new 0 0 38 38;" xml:space="preserve">
<style type="text/css">
	.st0{fill:#BDBDBD;}
	.st1{opacity:0.15;fill:#616161;}
	.st2{fill:#29B6F6;}
	.st3{fill:#616161;}
</style>
<g>
	<rect x="35" y="35" transform="matrix(-1 -1.224647e-016 1.224647e-016 -1 71 71)" class="st0" width="1" height="1"/>
	<rect x="33" y="35" transform="matrix(-1 -1.224647e-016 1.224647e-016 -1 67 71)" class="st0" width="1" height="1"/>
	<rect x="31" y="35" transform="matrix(-1 -1.224647e-016 1.224647e-016 -1 63 71)" class="st0" width="1" height="1"/>
	<rect x="29" y="35" transform="matrix(-1 -1.224647e-016 1.224647e-016 -1 59 71)" class="st0" width="1" height="1"/>
	<rect x="27" y="35" transform="matrix(-1 -1.224647e-016 1.224647e-016 -1 55 71)" class="st0" width="1" height="1"/>
	<rect x="25" y="35" transform="matrix(-1 -1.224647e-016 1.224647e-016 -1 51 71)" class="st0" width="1" height="1"/>
	<rect x="23" y="35" transform="matrix(-1 -1.224647e-016 1.224647e-016 -1 47 71)" class="st0" width="1" height="1"/>
	<rect x="21" y="35" transform="matrix(-1 -1.224647e-016 1.224647e-016 -1 43 71)" class="st0" width="1" height="1"/>
	<rect x="19" y="35" transform="matrix(-1 -1.224647e-016 1.224647e-016 -1 39 71)" class="st0" width="1" height="1"/>
	<rect x="35" y="33" transform="matrix(-1 -1.224647e-016 1.224647e-016 -1 71 67)" class="st0" width="1" height="1"/>
	<rect x="33" y="33" transform="matrix(-1 -1.224647e-016 1.224647e-016 -1 67 67)" class="st0" width="1" height="1"/>
	<rect x="31" y="33" transform="matrix(-1 -1.224647e-016 1.224647e-016 -1 63 67)" class="st0" width="1" height="1"/>
	<rect x="29" y="33" transform="matrix(-1 -1.224647e-016 1.224647e-016 -1 59 67)" class="st0" width="1" height="1"/>
	<rect x="27" y="33" transform="matrix(-1 -1.224647e-016 1.224647e-016 -1 55 67)" class="st0" width="1" height="1"/>
	<rect x="25" y="33" transform="matrix(-1 -1.224647e-016 1.224647e-016 -1 51 67)" class="st0" width="1" height="1"/>
	<rect x="23" y="33" transform="matrix(-1 -1.224647e-016 1.224647e-016 -1 47 67)" class="st0" width="1" height="1"/>
	<rect x="21" y="33" transform="matrix(-1 -1.224647e-016 1.224647e-016 -1 43 67)" class="st0" width="1" height="1"/>
	<rect x="19" y="33" transform="matrix(-1 -1.224647e-016 1.224647e-016 -1 39 67)" class="st0" width="1" height="1"/>
	<rect x="35" y="31" transform="matrix(-1 -1.224647e-016 1.224647e-016 -1 71 63)" class="st0" width="1" height="1"/>
	<rect x="33" y="31" transform="matrix(-1 -1.224647e-016 1.224647e-016 -1 67 63)" class="st0" width="1" height="1"/>
	<rect x="31" y="31" transform="matrix(-1 -1.224647e-016 1.224647e-016 -1 63 63)" class="st0" width="1" height="1"/>
	<rect x="29" y="31" transform="matrix(-1 -1.224647e-016 1.224647e-016 -1 59 63)" class="st0" width="1" height="1"/>
	<rect x="27" y="31" transform="matrix(-1 -1.224647e-016 1.224647e-016 -1 55 63)" class="st0" width="1" height="1"/>
	<rect x="25" y="31" transform="matrix(-1 -1.224647e-016 1.224647e-016 -1 51 63)" class="st0" width="1" height="1"/>
	<rect x="23" y="31" transform="matrix(-1 -1.224647e-016 1.224647e-016 -1 47 63)" class="st0" width="1" height="1"/>
	<rect x="21" y="31" transform="matrix(-1 -1.224647e-016 1.224647e-016 -1 43 63)" class="st0" width="1" height="1"/>
	<rect x="19" y="31" transform="matrix(-1 -1.224647e-016 1.224647e-016 -1 39 63)" class="st0" width="1" height="1"/>
	<rect x="31" y="29" transform="matrix(6.123234e-017 -1 1 6.123234e-017 2 61)" class="st0" width="1" height="1"/>
	<rect x="31" y="27" transform="matrix(6.123234e-017 -1 1 6.123234e-017 4 59)" class="st0" width="1" height="1"/>
	<rect x="31" y="25" transform="matrix(6.123234e-017 -1 1 6.123234e-017 6 57)" class="st0" width="1" height="1"/>
	<rect x="31" y="23" transform="matrix(6.123234e-017 -1 1 6.123234e-017 8 55)" class="st0" width="1" height="1"/>
	<rect x="31" y="21" transform="matrix(6.123234e-017 -1 1 6.123234e-017 10 53)" class="st0" width="1" height="1"/>
	<rect x="31" y="19" transform="matrix(6.123234e-017 -1 1 6.123234e-017 12 51)" class="st0" width="1" height="1"/>
	<rect x="33" y="35" transform="matrix(6.123234e-017 -1 1 6.123234e-017 -2 69)" class="st0" width="1" height="1"/>
	<rect x="33" y="33" transform="matrix(6.123234e-017 -1 1 6.123234e-017 0 67)" class="st0" width="1" height="1"/>
	<rect x="33" y="29" transform="matrix(6.123234e-017 -1 1 6.123234e-017 4 63)" class="st0" width="1" height="1"/>
	<rect x="33" y="27" transform="matrix(6.123234e-017 -1 1 6.123234e-017 6 61)" class="st0" width="1" height="1"/>
	<rect x="33" y="25" transform="matrix(6.123234e-017 -1 1 6.123234e-017 8 59)" class="st0" width="1" height="1"/>
	<rect x="33" y="23" transform="matrix(6.123234e-017 -1 1 6.123234e-017 10 57)" class="st0" width="1" height="1"/>
	<rect x="33" y="21" transform="matrix(6.123234e-017 -1 1 6.123234e-017 12 55)" class="st0" width="1" height="1"/>
	<rect x="33" y="19" transform="matrix(6.123234e-017 -1 1 6.123234e-017 14 53)" class="st0" width="1" height="1"/>
	<rect x="35" y="29" transform="matrix(6.123234e-017 -1 1 6.123234e-017 6 65)" class="st0" width="1" height="1"/>
	<rect x="35" y="27" transform="matrix(6.123234e-017 -1 1 6.123234e-017 8 63)" class="st0" width="1" height="1"/>
	<rect x="35" y="25" transform="matrix(6.123234e-017 -1 1 6.123234e-017 10 61)" class="st0" width="1" height="1"/>
	<rect x="35" y="23" transform="matrix(6.123234e-017 -1 1 6.123234e-017 12 59)" class="st0" width="1" height="1"/>
	<rect x="35" y="21" transform="matrix(6.123234e-017 -1 1 6.123234e-017 14 57)" class="st0" width="1" height="1"/>
	<rect x="35" y="19" transform="matrix(6.123234e-017 -1 1 6.123234e-017 16 55)" class="st0" width="1" height="1"/>
	<rect x="29" y="29" transform="matrix(-1 -1.224647e-016 1.224647e-016 -1 59 59)" class="st0" width="1" height="1"/>
	<rect x="27" y="29" transform="matrix(-1 -1.224647e-016 1.224647e-016 -1 55 59)" class="st0" width="1" height="1"/>
	<rect x="29" y="27" transform="matrix(-1 -1.224647e-016 1.224647e-016 -1 59 55)" class="st0" width="1" height="1"/>
	<rect x="27" y="27" transform="matrix(-1 -1.224647e-016 1.224647e-016 -1 55 55)" class="st0" width="1" height="1"/>
	<rect x="27" y="29" transform="matrix(6.123234e-017 -1 1 6.123234e-017 -2 57)" class="st0" width="1" height="1"/>
	<rect x="27" y="27" transform="matrix(6.123234e-017 -1 1 6.123234e-017 0 55)" class="st0" width="1" height="1"/>
</g>
<rect x="2" y="2" class="st1" width="23" height="23"/>
<g>
	<path class="st2" d="M8,11.6c-1.1,1.6-1.8,3.5-2,5.6l1,0.1c0.2-1.9,0.8-3.6,1.8-5.1L8,11.6z M7.1,19.7l-1,0.1c0.2,2,0.9,3.9,2,5.6
		l0.8-0.5C7.9,23.3,7.3,21.6,7.1,19.7z"/>
	<path class="st3" d="M31,18.5C31,25.4,25.4,31,18.5,31c-3.5,0-6.6-1.4-8.8-3.7l0.7-0.7c2.1,2.1,4.9,3.4,8.1,3.4
		C24.8,30,30,24.8,30,18.5C30,12.1,24.8,7,18.5,7c-2.5,0-4.8,0.9-6.8,2.4l3.4,0.7L15,11l-4.9-1l1-4.9l1,0.2l-0.6,2.9
		c2-1.4,4.4-2.2,7-2.2C25.4,6,31,11.6,31,18.5z"/>
</g>
<polygon class="st3" points="19,18 19,9 18,9 18,19 26,19 26,18 "/>
</svg>
