<?xml version="1.0" encoding="utf-8"?>
<!-- Generator: Adobe Illustrator 19.2.0, SVG Export Plug-In . SVG Version: 6.00 Build 0)  -->
<svg version="1.1" id="Outlined_2_" xmlns="http://www.w3.org/2000/svg" xmlns:xlink="http://www.w3.org/1999/xlink" x="0px"
	 y="0px" viewBox="0 0 38 38" style="enable-background:new 0 0 38 38;" xml:space="preserve">
<style type="text/css">
	.st0{fill:#BDBDBD;}
	.st1{fill:#FB8C00;}
	.st2{fill:none;}
	.st3{fill:#616161;}
	.st4{opacity:0.1;fill:#616161;}
</style>
<g>
	<rect x="35" y="35" transform="matrix(-1 -1.224647e-016 1.224647e-016 -1 71 71)" class="st0" width="1" height="1"/>
	<rect x="33" y="35" transform="matrix(-1 -1.224647e-016 1.224647e-016 -1 67 71)" class="st0" width="1" height="1"/>
	<rect x="31" y="35" transform="matrix(-1 -1.224647e-016 1.224647e-016 -1 63 71)" class="st0" width="1" height="1"/>
	<rect x="29" y="35" transform="matrix(-1 -1.224647e-016 1.224647e-016 -1 59 71)" class="st0" width="1" height="1"/>
	<rect x="27" y="35" transform="matrix(-1 -1.224647e-016 1.224647e-016 -1 55 71)" class="st0" width="1" height="1"/>
	<rect x="25" y="35" transform="matrix(-1 -1.224647e-016 1.224647e-016 -1 51 71)" class="st0" width="1" height="1"/>
	<rect x="23" y="35" transform="matrix(-1 -1.224647e-016 1.224647e-016 -1 47 71)" class="st0" width="1" height="1"/>
	<rect x="21" y="35" transform="matrix(-1 -1.224647e-016 1.224647e-016 -1 43 71)" class="st0" width="1" height="1"/>
	<rect x="19" y="35" transform="matrix(-1 -1.224647e-016 1.224647e-016 -1 39 71)" class="st0" width="1" height="1"/>
	<rect x="35" y="33" transform="matrix(-1 -1.224647e-016 1.224647e-016 -1 71 67)" class="st0" width="1" height="1"/>
	<rect x="33" y="33" transform="matrix(-1 -1.224647e-016 1.224647e-016 -1 67 67)" class="st0" width="1" height="1"/>
	<rect x="31" y="33" transform="matrix(-1 -1.224647e-016 1.224647e-016 -1 63 67)" class="st0" width="1" height="1"/>
	<rect x="29" y="33" transform="matrix(-1 -1.224647e-016 1.224647e-016 -1 59 67)" class="st0" width="1" height="1"/>
	<rect x="27" y="33" transform="matrix(-1 -1.224647e-016 1.224647e-016 -1 55 67)" class="st0" width="1" height="1"/>
	<rect x="25" y="33" transform="matrix(-1 -1.224647e-016 1.224647e-016 -1 51 67)" class="st0" width="1" height="1"/>
	<rect x="23" y="33" transform="matrix(-1 -1.224647e-016 1.224647e-016 -1 47 67)" class="st0" width="1" height="1"/>
	<rect x="21" y="33" transform="matrix(-1 -1.224647e-016 1.224647e-016 -1 43 67)" class="st0" width="1" height="1"/>
	<rect x="19" y="33" transform="matrix(-1 -1.224647e-016 1.224647e-016 -1 39 67)" class="st0" width="1" height="1"/>
	<rect x="35" y="31" transform="matrix(-1 -1.224647e-016 1.224647e-016 -1 71 63)" class="st0" width="1" height="1"/>
	<rect x="33" y="31" transform="matrix(-1 -1.224647e-016 1.224647e-016 -1 67 63)" class="st0" width="1" height="1"/>
	<rect x="31" y="31" transform="matrix(-1 -1.224647e-016 1.224647e-016 -1 63 63)" class="st0" width="1" height="1"/>
	<rect x="29" y="31" transform="matrix(-1 -1.224647e-016 1.224647e-016 -1 59 63)" class="st0" width="1" height="1"/>
	<rect x="27" y="31" transform="matrix(-1 -1.224647e-016 1.224647e-016 -1 55 63)" class="st0" width="1" height="1"/>
	<rect x="25" y="31" transform="matrix(-1 -1.224647e-016 1.224647e-016 -1 51 63)" class="st0" width="1" height="1"/>
	<rect x="23" y="31" transform="matrix(-1 -1.224647e-016 1.224647e-016 -1 47 63)" class="st0" width="1" height="1"/>
	<rect x="21" y="31" transform="matrix(-1 -1.224647e-016 1.224647e-016 -1 43 63)" class="st0" width="1" height="1"/>
	<rect x="19" y="31" transform="matrix(-1 -1.224647e-016 1.224647e-016 -1 39 63)" class="st0" width="1" height="1"/>
	<rect x="31" y="29" transform="matrix(6.123234e-017 -1 1 6.123234e-017 2 61)" class="st0" width="1" height="1"/>
	<rect x="31" y="27" transform="matrix(6.123234e-017 -1 1 6.123234e-017 4 59)" class="st0" width="1" height="1"/>
	<rect x="31" y="25" transform="matrix(6.123234e-017 -1 1 6.123234e-017 6 57)" class="st0" width="1" height="1"/>
	<rect x="31" y="23" transform="matrix(6.123234e-017 -1 1 6.123234e-017 8 55)" class="st0" width="1" height="1"/>
	<rect x="31" y="21" transform="matrix(6.123234e-017 -1 1 6.123234e-017 10 53)" class="st0" width="1" height="1"/>
	<rect x="31" y="19" transform="matrix(6.123234e-017 -1 1 6.123234e-017 12 51)" class="st0" width="1" height="1"/>
	<rect x="33" y="35" transform="matrix(6.123234e-017 -1 1 6.123234e-017 -2 69)" class="st0" width="1" height="1"/>
	<rect x="33" y="33" transform="matrix(6.123234e-017 -1 1 6.123234e-017 0 67)" class="st0" width="1" height="1"/>
	<rect x="33" y="29" transform="matrix(6.123234e-017 -1 1 6.123234e-017 4 63)" class="st0" width="1" height="1"/>
	<rect x="33" y="27" transform="matrix(6.123234e-017 -1 1 6.123234e-017 6 61)" class="st0" width="1" height="1"/>
	<rect x="33" y="25" transform="matrix(6.123234e-017 -1 1 6.123234e-017 8 59)" class="st0" width="1" height="1"/>
	<rect x="33" y="23" transform="matrix(6.123234e-017 -1 1 6.123234e-017 10 57)" class="st0" width="1" height="1"/>
	<rect x="33" y="21" transform="matrix(6.123234e-017 -1 1 6.123234e-017 12 55)" class="st0" width="1" height="1"/>
	<rect x="33" y="19" transform="matrix(6.123234e-017 -1 1 6.123234e-017 14 53)" class="st0" width="1" height="1"/>
	<rect x="35" y="29" transform="matrix(6.123234e-017 -1 1 6.123234e-017 6 65)" class="st0" width="1" height="1"/>
	<rect x="35" y="27" transform="matrix(6.123234e-017 -1 1 6.123234e-017 8 63)" class="st0" width="1" height="1"/>
	<rect x="35" y="25" transform="matrix(6.123234e-017 -1 1 6.123234e-017 10 61)" class="st0" width="1" height="1"/>
	<rect x="35" y="23" transform="matrix(6.123234e-017 -1 1 6.123234e-017 12 59)" class="st0" width="1" height="1"/>
	<rect x="35" y="21" transform="matrix(6.123234e-017 -1 1 6.123234e-017 14 57)" class="st0" width="1" height="1"/>
	<rect x="35" y="19" transform="matrix(6.123234e-017 -1 1 6.123234e-017 16 55)" class="st0" width="1" height="1"/>
	<rect x="29" y="29" transform="matrix(-1 -1.224647e-016 1.224647e-016 -1 59 59)" class="st0" width="1" height="1"/>
	<rect x="27" y="29" transform="matrix(-1 -1.224647e-016 1.224647e-016 -1 55 59)" class="st0" width="1" height="1"/>
	<rect x="29" y="27" transform="matrix(-1 -1.224647e-016 1.224647e-016 -1 59 55)" class="st0" width="1" height="1"/>
	<rect x="27" y="27" transform="matrix(-1 -1.224647e-016 1.224647e-016 -1 55 55)" class="st0" width="1" height="1"/>
	<rect x="27" y="29" transform="matrix(6.123234e-017 -1 1 6.123234e-017 -2 57)" class="st0" width="1" height="1"/>
	<rect x="27" y="27" transform="matrix(6.123234e-017 -1 1 6.123234e-017 0 55)" class="st0" width="1" height="1"/>
</g>
<g>
	<polygon class="st1" points="19,24.3 13,27.6 13,28.8 19,25.4 25,28.7 25,27.6 	"/>
</g>
<g>
	<polygon class="st1" points="19,15 14,12.2 14,13.3 19,16.1 24,13.4 24,12.2 	"/>
</g>
<g>
	<rect x="19" y="19" transform="matrix(0.7071 -0.7071 0.7071 0.7071 -7.8684 18.9933)" class="st2" width="0" height="0"/>
	<path class="st2" d="M12.3,28c0,0-0.1,0.4-0.2,1.2C12,29.8,12,30.4,12,31h14c0-0.6,0-1.2-0.1-1.7c-0.1-0.9-0.2-1.2-0.2-1.2
		c-0.8-4.1-3.4-5.7-6.7-9C15.7,22.3,13.1,23.9,12.3,28z"/>
</g>
<g>
	<path class="st3" d="M19,19c3.3,3.3,5.9,4.9,6.7,9c0,0,0.1,0.4,0.2,1.2C26,29.8,26,30.4,26,31H10v1h18v-1h-1
		c0-5.8-2.4-8.1-5.4-10.9c-0.4-0.4-0.8-0.7-1.2-1.1c0.4-0.4,0.8-0.7,1.2-1.1c2.9-2.7,5.1-4.8,5.4-9.9h-1c-0.1,1.4-0.3,2.5-0.6,3.5
		c0,0-0.4,1-0.7,1.5C23.3,15.2,21.3,16.6,19,19L19,19L19,19z"/>
	<path class="st3" d="M28,7V6H10v1h1c0,5.8,2.4,8.1,5.4,10.9c0.4,0.4,0.8,0.7,1.2,1.1c-0.4,0.4-0.8,0.7-1.2,1.1
		c-2.8,2.7-5.1,4.8-5.4,9.9h1c0-0.2,0-0.5,0.1-0.7c0.1-0.8,0.2-1.2,0.2-1.2c0.8-4.1,3.4-5.7,6.7-9l0,0l0,0c-2.4-2.4-4.4-3.8-5.6-6
		c-0.6-0.9-0.7-1.5-0.7-1.5C12.2,10.2,12,8.8,12,7H28z"/>
</g>
<rect x="2" y="2" class="st4" width="17" height="28"/>
</svg>
