<?xml version="1.0" encoding="utf-8"?>
<!-- Generator: Adobe Illustrator 19.2.0, SVG Export Plug-In . SVG Version: 6.00 Build 0)  -->
<svg version="1.1" id="Outlined_2_" xmlns="http://www.w3.org/2000/svg" xmlns:xlink="http://www.w3.org/1999/xlink" x="0px"
	 y="0px" viewBox="0 0 38 38" style="enable-background:new 0 0 38 38;" xml:space="preserve">
<style type="text/css">
	.st0{opacity:0.12;fill:#616161;}
	.st1{fill:#BDBDBD;}
	.st2{fill:#616161;}
	.st3{fill:#7CB342;}
</style>
<rect x="2" y="2" class="st0" width="23" height="26"/>
<g>
	<rect x="35" y="35" transform="matrix(-1 -1.224647e-016 1.224647e-016 -1 71 71)" class="st1" width="1" height="1"/>
	<rect x="33" y="35" transform="matrix(-1 -1.224647e-016 1.224647e-016 -1 67 71)" class="st1" width="1" height="1"/>
	<rect x="31" y="35" transform="matrix(-1 -1.224647e-016 1.224647e-016 -1 63 71)" class="st1" width="1" height="1"/>
	<rect x="29" y="35" transform="matrix(-1 -1.224647e-016 1.224647e-016 -1 59 71)" class="st1" width="1" height="1"/>
	<rect x="27" y="35" transform="matrix(-1 -1.224647e-016 1.224647e-016 -1 55 71)" class="st1" width="1" height="1"/>
	<rect x="25" y="35" transform="matrix(-1 -1.224647e-016 1.224647e-016 -1 51 71)" class="st1" width="1" height="1"/>
	<rect x="23" y="35" transform="matrix(-1 -1.224647e-016 1.224647e-016 -1 47 71)" class="st1" width="1" height="1"/>
	<rect x="21" y="35" transform="matrix(-1 -1.224647e-016 1.224647e-016 -1 43 71)" class="st1" width="1" height="1"/>
	<rect x="19" y="35" transform="matrix(-1 -1.224647e-016 1.224647e-016 -1 39 71)" class="st1" width="1" height="1"/>
	<rect x="35" y="33" transform="matrix(-1 -1.224647e-016 1.224647e-016 -1 71 67)" class="st1" width="1" height="1"/>
	<rect x="33" y="33" transform="matrix(-1 -1.224647e-016 1.224647e-016 -1 67 67)" class="st1" width="1" height="1"/>
	<rect x="31" y="33" transform="matrix(-1 -1.224647e-016 1.224647e-016 -1 63 67)" class="st1" width="1" height="1"/>
	<rect x="29" y="33" transform="matrix(-1 -1.224647e-016 1.224647e-016 -1 59 67)" class="st1" width="1" height="1"/>
	<rect x="27" y="33" transform="matrix(-1 -1.224647e-016 1.224647e-016 -1 55 67)" class="st1" width="1" height="1"/>
	<rect x="25" y="33" transform="matrix(-1 -1.224647e-016 1.224647e-016 -1 51 67)" class="st1" width="1" height="1"/>
	<rect x="23" y="33" transform="matrix(-1 -1.224647e-016 1.224647e-016 -1 47 67)" class="st1" width="1" height="1"/>
	<rect x="21" y="33" transform="matrix(-1 -1.224647e-016 1.224647e-016 -1 43 67)" class="st1" width="1" height="1"/>
	<rect x="19" y="33" transform="matrix(-1 -1.224647e-016 1.224647e-016 -1 39 67)" class="st1" width="1" height="1"/>
	<rect x="35" y="31" transform="matrix(-1 -1.224647e-016 1.224647e-016 -1 71 63)" class="st1" width="1" height="1"/>
	<rect x="33" y="31" transform="matrix(-1 -1.224647e-016 1.224647e-016 -1 67 63)" class="st1" width="1" height="1"/>
	<rect x="31" y="31" transform="matrix(-1 -1.224647e-016 1.224647e-016 -1 63 63)" class="st1" width="1" height="1"/>
	<rect x="29" y="31" transform="matrix(-1 -1.224647e-016 1.224647e-016 -1 59 63)" class="st1" width="1" height="1"/>
	<rect x="27" y="31" transform="matrix(-1 -1.224647e-016 1.224647e-016 -1 55 63)" class="st1" width="1" height="1"/>
	<rect x="25" y="31" transform="matrix(-1 -1.224647e-016 1.224647e-016 -1 51 63)" class="st1" width="1" height="1"/>
	<rect x="23" y="31" transform="matrix(-1 -1.224647e-016 1.224647e-016 -1 47 63)" class="st1" width="1" height="1"/>
	<rect x="21" y="31" transform="matrix(-1 -1.224647e-016 1.224647e-016 -1 43 63)" class="st1" width="1" height="1"/>
	<rect x="19" y="31" transform="matrix(-1 -1.224647e-016 1.224647e-016 -1 39 63)" class="st1" width="1" height="1"/>
	<rect x="31" y="29" transform="matrix(6.123234e-017 -1 1 6.123234e-017 2 61)" class="st1" width="1" height="1"/>
	<rect x="31" y="27" transform="matrix(6.123234e-017 -1 1 6.123234e-017 4 59)" class="st1" width="1" height="1"/>
	<rect x="31" y="25" transform="matrix(6.123234e-017 -1 1 6.123234e-017 6 57)" class="st1" width="1" height="1"/>
	<rect x="31" y="23" transform="matrix(6.123234e-017 -1 1 6.123234e-017 8 55)" class="st1" width="1" height="1"/>
	<rect x="31" y="21" transform="matrix(6.123234e-017 -1 1 6.123234e-017 10 53)" class="st1" width="1" height="1"/>
	<rect x="31" y="19" transform="matrix(6.123234e-017 -1 1 6.123234e-017 12 51)" class="st1" width="1" height="1"/>
	<rect x="33" y="35" transform="matrix(6.123234e-017 -1 1 6.123234e-017 -2 69)" class="st1" width="1" height="1"/>
	<rect x="33" y="33" transform="matrix(6.123234e-017 -1 1 6.123234e-017 0 67)" class="st1" width="1" height="1"/>
	<rect x="33" y="29" transform="matrix(6.123234e-017 -1 1 6.123234e-017 4 63)" class="st1" width="1" height="1"/>
	<rect x="33" y="27" transform="matrix(6.123234e-017 -1 1 6.123234e-017 6 61)" class="st1" width="1" height="1"/>
	<rect x="33" y="25" transform="matrix(6.123234e-017 -1 1 6.123234e-017 8 59)" class="st1" width="1" height="1"/>
	<rect x="33" y="23" transform="matrix(6.123234e-017 -1 1 6.123234e-017 10 57)" class="st1" width="1" height="1"/>
	<rect x="33" y="21" transform="matrix(6.123234e-017 -1 1 6.123234e-017 12 55)" class="st1" width="1" height="1"/>
	<rect x="33" y="19" transform="matrix(6.123234e-017 -1 1 6.123234e-017 14 53)" class="st1" width="1" height="1"/>
	<rect x="35" y="29" transform="matrix(6.123234e-017 -1 1 6.123234e-017 6 65)" class="st1" width="1" height="1"/>
	<rect x="35" y="27" transform="matrix(6.123234e-017 -1 1 6.123234e-017 8 63)" class="st1" width="1" height="1"/>
	<rect x="35" y="25" transform="matrix(6.123234e-017 -1 1 6.123234e-017 10 61)" class="st1" width="1" height="1"/>
	<rect x="35" y="23" transform="matrix(6.123234e-017 -1 1 6.123234e-017 12 59)" class="st1" width="1" height="1"/>
	<rect x="35" y="21" transform="matrix(6.123234e-017 -1 1 6.123234e-017 14 57)" class="st1" width="1" height="1"/>
	<rect x="35" y="19" transform="matrix(6.123234e-017 -1 1 6.123234e-017 16 55)" class="st1" width="1" height="1"/>
	<rect x="29" y="29" transform="matrix(-1 -1.224647e-016 1.224647e-016 -1 59 59)" class="st1" width="1" height="1"/>
	<rect x="27" y="29" transform="matrix(-1 -1.224647e-016 1.224647e-016 -1 55 59)" class="st1" width="1" height="1"/>
	<rect x="29" y="27" transform="matrix(-1 -1.224647e-016 1.224647e-016 -1 59 55)" class="st1" width="1" height="1"/>
	<rect x="27" y="27" transform="matrix(-1 -1.224647e-016 1.224647e-016 -1 55 55)" class="st1" width="1" height="1"/>
	<rect x="27" y="29" transform="matrix(6.123234e-017 -1 1 6.123234e-017 -2 57)" class="st1" width="1" height="1"/>
	<rect x="27" y="27" transform="matrix(6.123234e-017 -1 1 6.123234e-017 0 55)" class="st1" width="1" height="1"/>
</g>
<g>
	<path class="st2" d="M14,10.5C14,8,16,6,18.5,6S23,8,23,10.5c0,1.5,0,3.5,0,3.5h1c0,0,0-2,0-3.5c0-3-2.5-5.5-5.5-5.5
		c-3,0-5.5,2.5-5.5,5.5V17h1V10.5z"/>
	<path class="st2" d="M27.5,18H14h-1h-1H9.5C9.2,18,9,18.2,9,18.5v12C9,30.8,9.2,31,9.5,31h18c0.3,0,0.5-0.2,0.5-0.5v-12
		C28,18.2,27.8,18,27.5,18z M27,30H10V19h17V30z"/>
</g>
<rect x="18" y="22" class="st3" width="1" height="5"/>
</svg>
