<?xml version="1.0" encoding="utf-8"?>
<!-- Generator: Adobe Illustrator 19.2.0, SVG Export Plug-In . SVG Version: 6.00 Build 0)  -->
<svg version="1.1" id="Outlined_2_" xmlns="http://www.w3.org/2000/svg" xmlns:xlink="http://www.w3.org/1999/xlink" x="0px"
	 y="0px" viewBox="0 0 38 38" style="enable-background:new 0 0 38 38;" xml:space="preserve">
<style type="text/css">
	.st0{fill:#BDBDBD;}
	.st1{fill:none;}
	.st2{fill:#616161;}
	.st3{fill:#29B6F6;}
	.st4{opacity:0.15;fill:#616161;}
</style>
<g>
	<rect x="2" y="35" transform="matrix(6.123234e-017 -1 1 6.123234e-017 -33 38)" class="st0" width="1" height="1"/>
	<rect x="2" y="33" transform="matrix(6.123234e-017 -1 1 6.123234e-017 -31 36)" class="st0" width="1" height="1"/>
	<rect x="2" y="31" transform="matrix(6.123234e-017 -1 1 6.123234e-017 -29 34)" class="st0" width="1" height="1"/>
	<rect x="2" y="29" transform="matrix(6.123234e-017 -1 1 6.123234e-017 -27 32)" class="st0" width="1" height="1"/>
	<rect x="2" y="27" transform="matrix(6.123234e-017 -1 1 6.123234e-017 -25 30)" class="st0" width="1" height="1"/>
	<rect x="2" y="25" transform="matrix(6.123234e-017 -1 1 6.123234e-017 -23 28)" class="st0" width="1" height="1"/>
	<rect x="2" y="23" transform="matrix(6.123234e-017 -1 1 6.123234e-017 -21 26)" class="st0" width="1" height="1"/>
	<rect x="2" y="21" transform="matrix(6.123234e-017 -1 1 6.123234e-017 -19 24)" class="st0" width="1" height="1"/>
	<rect x="2" y="19" transform="matrix(6.123234e-017 -1 1 6.123234e-017 -17 22)" class="st0" width="1" height="1"/>
	<rect x="4" y="35" transform="matrix(6.123234e-017 -1 1 6.123234e-017 -31 40)" class="st0" width="1" height="1"/>
	<rect x="4" y="33" transform="matrix(6.123234e-017 -1 1 6.123234e-017 -29 38)" class="st0" width="1" height="1"/>
	<rect x="4" y="31" transform="matrix(6.123234e-017 -1 1 6.123234e-017 -27 36)" class="st0" width="1" height="1"/>
	<rect x="4" y="29" transform="matrix(6.123234e-017 -1 1 6.123234e-017 -25 34)" class="st0" width="1" height="1"/>
	<rect x="4" y="27" transform="matrix(6.123234e-017 -1 1 6.123234e-017 -23 32)" class="st0" width="1" height="1"/>
	<rect x="4" y="25" transform="matrix(6.123234e-017 -1 1 6.123234e-017 -21 30)" class="st0" width="1" height="1"/>
	<rect x="4" y="23" transform="matrix(6.123234e-017 -1 1 6.123234e-017 -19 28)" class="st0" width="1" height="1"/>
	<rect x="4" y="21" transform="matrix(6.123234e-017 -1 1 6.123234e-017 -17 26)" class="st0" width="1" height="1"/>
	<rect x="4" y="19" transform="matrix(6.123234e-017 -1 1 6.123234e-017 -15 24)" class="st0" width="1" height="1"/>
	<rect x="6" y="35" transform="matrix(6.123234e-017 -1 1 6.123234e-017 -29 42)" class="st0" width="1" height="1"/>
	<rect x="6" y="33" transform="matrix(6.123234e-017 -1 1 6.123234e-017 -27 40)" class="st0" width="1" height="1"/>
	<rect x="6" y="31" transform="matrix(6.123234e-017 -1 1 6.123234e-017 -25 38)" class="st0" width="1" height="1"/>
	<rect x="6" y="29" transform="matrix(6.123234e-017 -1 1 6.123234e-017 -23 36)" class="st0" width="1" height="1"/>
	<rect x="6" y="27" transform="matrix(6.123234e-017 -1 1 6.123234e-017 -21 34)" class="st0" width="1" height="1"/>
	<rect x="6" y="25" transform="matrix(6.123234e-017 -1 1 6.123234e-017 -19 32)" class="st0" width="1" height="1"/>
	<rect x="6" y="23" transform="matrix(6.123234e-017 -1 1 6.123234e-017 -17 30)" class="st0" width="1" height="1"/>
	<rect x="6" y="21" transform="matrix(6.123234e-017 -1 1 6.123234e-017 -15 28)" class="st0" width="1" height="1"/>
	<rect x="6" y="19" transform="matrix(6.123234e-017 -1 1 6.123234e-017 -13 26)" class="st0" width="1" height="1"/>
	<rect x="8" y="31" class="st0" width="1" height="1"/>
	<rect x="10" y="31" class="st0" width="1" height="1"/>
	<rect x="12" y="31" class="st0" width="1" height="1"/>
	<rect x="14" y="31" class="st0" width="1" height="1"/>
	<rect x="16" y="31" class="st0" width="1" height="1"/>
	<rect x="18" y="31" class="st0" width="1" height="1"/>
	<rect x="2" y="33" class="st0" width="1" height="1"/>
	<rect x="4" y="33" class="st0" width="1" height="1"/>
	<rect x="8" y="33" class="st0" width="1" height="1"/>
	<rect x="10" y="33" class="st0" width="1" height="1"/>
	<rect x="12" y="33" class="st0" width="1" height="1"/>
	<rect x="14" y="33" class="st0" width="1" height="1"/>
	<rect x="16" y="33" class="st0" width="1" height="1"/>
	<rect x="18" y="33" class="st0" width="1" height="1"/>
	<rect x="8" y="35" class="st0" width="1" height="1"/>
	<rect x="10" y="35" class="st0" width="1" height="1"/>
	<rect x="12" y="35" class="st0" width="1" height="1"/>
	<rect x="14" y="35" class="st0" width="1" height="1"/>
	<rect x="16" y="35" class="st0" width="1" height="1"/>
	<rect x="18" y="35" class="st0" width="1" height="1"/>
	<rect x="8" y="29" transform="matrix(6.123234e-017 -1 1 6.123234e-017 -21 38)" class="st0" width="1" height="1"/>
	<rect x="8" y="27" transform="matrix(6.123234e-017 -1 1 6.123234e-017 -19 36)" class="st0" width="1" height="1"/>
	<rect x="10" y="29" transform="matrix(6.123234e-017 -1 1 6.123234e-017 -19 40)" class="st0" width="1" height="1"/>
	<rect x="10" y="27" transform="matrix(6.123234e-017 -1 1 6.123234e-017 -17 38)" class="st0" width="1" height="1"/>
	<rect x="8" y="27" class="st0" width="1" height="1"/>
	<rect x="10" y="27" class="st0" width="1" height="1"/>
</g>
<g>
	<polygon class="st1" points="16.9,19 19.4,16.5 18.5,15.6 8,27.5 10.5,30 22.4,19.5 21.5,18.6 19,21.1 	"/>
</g>
<g>
	<path class="st1" d="M23.9,7.1c0,0,0.1,0,0.1,0C24,7.1,23.9,7.1,23.9,7.1z"/>
	<polygon class="st1" points="21.1,8.4 21.1,8.4 21.1,8.4 	"/>
	<path class="st1" d="M22.8,7.4c0,0,0.1,0,0.1,0C22.9,7.4,22.9,7.4,22.8,7.4z"/>
	<path class="st1" d="M19.8,10C19.8,10,19.8,9.9,19.8,10C19.8,9.9,19.8,10,19.8,10z"/>
	<polygon class="st1" points="20.4,9.1 20.4,9.1 20.4,9.1 	"/>
	<path class="st1" d="M28.9,17.6L28.9,17.6c0,0-0.1,0-0.1,0.1C28.8,17.6,28.8,17.6,28.9,17.6z"/>
	<path class="st1" d="M19.4,11c0,0,0-0.1,0-0.1C19.4,10.9,19.4,10.9,19.4,11z"/>
	<path class="st1" d="M28.2,18c-0.1,0.1-0.2,0.1-0.3,0.2C28,18.2,28.1,18.1,28.2,18z"/>
	<path class="st1" d="M29.6,16.9c0,0,0.1-0.1,0.1-0.1C29.6,16.8,29.6,16.8,29.6,16.9L29.6,16.9z"/>
	<path class="st1" d="M19.1,12c0,0,0-0.1,0-0.1C19.1,11.9,19.1,12,19.1,12z"/>
	<path class="st1" d="M27.3,18.5c-0.1,0-0.2,0.1-0.2,0.1C27.1,18.6,27.2,18.6,27.3,18.5z"/>
	<path class="st1" d="M21.9,7.9C22,7.8,22,7.8,21.9,7.9C22,7.8,22,7.8,21.9,7.9z"/>
	<path class="st1" d="M31,13c0-3.3-2.7-6-6-6C28.3,7,31,9.7,31,13z"/>
	<path class="st1" d="M30.2,15.9c-0.1,0.1-0.1,0.2-0.2,0.3C30.1,16.1,30.2,16,30.2,15.9z"/>
	<path class="st1" d="M30.9,14c0,0.1-0.1,0.2-0.1,0.3C30.9,14.2,30.9,14.1,30.9,14z"/>
	<path class="st1" d="M30.6,15c0,0.1-0.1,0.2-0.1,0.3C30.6,15.2,30.6,15.1,30.6,15z"/>
	<path class="st2" d="M25,6c-3.9,0-7,3.1-7,7c0,0.6,0.1,1.1,0.2,1.6c-0.2,0.1-0.3,0.1-0.5,0.3L7.3,26.8c-0.3,0.4-0.3,1,0,1.4
		l0.9,0.9l-2.5,2.5l0.7,0.7l2.5-2.5l0.9,0.9c0.2,0.2,0.5,0.3,0.7,0.3c0.2,0,0.5-0.1,0.7-0.3l11.9-10.5c0.1-0.1,0.2-0.3,0.3-0.5
		c0.5,0.1,1.1,0.2,1.6,0.2c3.9,0,7-3.1,7-7S28.9,6,25,6z M29.6,16.9L29.6,16.9c-0.2,0.2-0.5,0.5-0.7,0.7l0,0c0,0-0.1,0-0.1,0.1
		c-0.2,0.1-0.4,0.3-0.5,0.4c-0.1,0.1-0.2,0.1-0.3,0.2c-0.2,0.1-0.4,0.2-0.7,0.3c-0.1,0-0.2,0.1-0.2,0.1c0,0,0,0-0.1,0c0,0,0,0,0,0
		c-0.6,0.2-1.3,0.3-2,0.3c-0.7,0-1.4-0.1-2-0.4l-0.7-0.7l-0.7,0.7l0.9,0.9L10.5,30L8,27.5l10.5-11.9l0.9,0.9l0.7-0.7L19.4,15
		c-0.2-0.6-0.4-1.3-0.4-2c0-0.3,0-0.7,0.1-1c0,0,0-0.1,0-0.1c0.1-0.3,0.1-0.6,0.3-0.9c0,0,0-0.1,0-0.1c0.1-0.3,0.2-0.6,0.4-0.8
		c0,0,0-0.1,0.1-0.1c0.2-0.3,0.4-0.5,0.6-0.8c0,0,0,0,0,0l0,0c0.2-0.3,0.5-0.5,0.7-0.7l0,0c0,0,0,0,0,0c0.2-0.2,0.5-0.4,0.8-0.6
		c0,0,0.1,0,0.1,0c0.3-0.2,0.6-0.3,0.8-0.4c0,0,0.1,0,0.1,0c0.3-0.1,0.6-0.2,0.9-0.3c0,0,0.1,0,0.1,0C24.3,7,24.7,7,25,7
		c3.3,0,6,2.7,6,6c0,0.4,0,0.7-0.1,1c0,0.1-0.1,0.2-0.1,0.3c-0.1,0.2-0.1,0.5-0.2,0.7c0,0.1-0.1,0.2-0.1,0.3
		c-0.1,0.2-0.2,0.4-0.3,0.6c-0.1,0.1-0.1,0.2-0.2,0.3c-0.1,0.2-0.2,0.4-0.4,0.5C29.6,16.8,29.6,16.8,29.6,16.9z"/>
	<path d="M19,13c0-0.3,0-0.7,0.1-1C19,12.3,19,12.7,19,13z"/>
	<path d="M27,18.7C27,18.7,27,18.6,27,18.7C27,18.6,27,18.6,27,18.7C27,18.7,27,18.7,27,18.7z"/>
	<path d="M19.1,11.9c0.1-0.3,0.1-0.6,0.3-0.9C19.3,11.3,19.2,11.6,19.1,11.9z"/>
	<path d="M28.8,17.7c-0.2,0.1-0.4,0.3-0.5,0.4C28.4,17.9,28.6,17.8,28.8,17.7z"/>
	<path d="M27.9,18.2c-0.2,0.1-0.4,0.2-0.7,0.3C27.5,18.4,27.7,18.3,27.9,18.2z"/>
	<path d="M29.7,16.7c0.1-0.2,0.3-0.3,0.4-0.5C29.9,16.4,29.8,16.6,29.7,16.7z"/>
	<path d="M21.1,8.4c0.2-0.2,0.5-0.4,0.8-0.6C21.6,8,21.4,8.2,21.1,8.4z"/>
	<path d="M22,7.8c0.3-0.2,0.6-0.3,0.8-0.4C22.6,7.5,22.3,7.7,22,7.8z"/>
	<path d="M31,13c0,0.4,0,0.7-0.1,1C31,13.7,31,13.4,31,13z"/>
	<path d="M23,7.4c0.3-0.1,0.6-0.2,0.9-0.3C23.6,7.2,23.3,7.3,23,7.4z"/>
	<path d="M24,7.1C24.3,7,24.7,7,25,7C24.7,7,24.3,7,24,7.1z"/>
	<path d="M19.4,10.8c0.1-0.3,0.2-0.6,0.4-0.8C19.7,10.3,19.5,10.6,19.4,10.8z"/>
	<path d="M30.5,15.3c-0.1,0.2-0.2,0.4-0.3,0.6C30.3,15.7,30.4,15.5,30.5,15.3z"/>
	<path d="M19.9,9.9c0.2-0.3,0.4-0.5,0.6-0.8C20.2,9.4,20,9.6,19.9,9.9z"/>
	<path d="M30.8,14.3c-0.1,0.2-0.1,0.5-0.2,0.7C30.7,14.8,30.8,14.6,30.8,14.3z"/>
</g>
<path class="st3" d="M20.4,9.1l8.4,8.4c0.3-0.2,0.5-0.5,0.7-0.7l-8.4-8.4C20.9,8.6,20.6,8.9,20.4,9.1z"/>
<rect x="11" y="2" class="st4" width="24" height="25"/>
</svg>
