<?xml version="1.0" encoding="utf-8"?>
<!-- Generator: Adobe Illustrator 19.2.0, SVG Export Plug-In . SVG Version: 6.00 Build 0)  -->
<svg version="1.1" id="Outlined_2_" xmlns="http://www.w3.org/2000/svg" xmlns:xlink="http://www.w3.org/1999/xlink" x="0px"
	 y="0px" viewBox="0 0 38 38" style="enable-background:new 0 0 38 38;" xml:space="preserve">
<style type="text/css">
	.st0{fill:#BDBDBD;}
	.st1{fill:#616161;}
	.st2{fill:#E53935;}
	.st3{fill:#29B6F6;}
	.st4{opacity:0.1;fill:#616161;}
</style>
<g>
	<rect x="2" y="2" class="st0" width="1" height="1"/>
	<rect x="4" y="2" class="st0" width="1" height="1"/>
	<rect x="6" y="2" class="st0" width="1" height="1"/>
	<rect x="8" y="2" class="st0" width="1" height="1"/>
	<rect x="10" y="2" class="st0" width="1" height="1"/>
	<rect x="12" y="2" class="st0" width="1" height="1"/>
	<rect x="14" y="2" class="st0" width="1" height="1"/>
	<rect x="16" y="2" class="st0" width="1" height="1"/>
	<rect x="18" y="2" class="st0" width="1" height="1"/>
	<rect x="2" y="4" class="st0" width="1" height="1"/>
	<rect x="4" y="4" class="st0" width="1" height="1"/>
	<rect x="6" y="4" class="st0" width="1" height="1"/>
	<rect x="8" y="4" class="st0" width="1" height="1"/>
	<rect x="10" y="4" class="st0" width="1" height="1"/>
	<rect x="12" y="4" class="st0" width="1" height="1"/>
	<rect x="14" y="4" class="st0" width="1" height="1"/>
	<rect x="16" y="4" class="st0" width="1" height="1"/>
	<rect x="18" y="4" class="st0" width="1" height="1"/>
	<rect x="2" y="6" class="st0" width="1" height="1"/>
	<rect x="4" y="6" class="st0" width="1" height="1"/>
	<rect x="6" y="6" class="st0" width="1" height="1"/>
	<rect x="8" y="6" class="st0" width="1" height="1"/>
	<rect x="10" y="6" class="st0" width="1" height="1"/>
	<rect x="12" y="6" class="st0" width="1" height="1"/>
	<rect x="14" y="6" class="st0" width="1" height="1"/>
	<rect x="16" y="6" class="st0" width="1" height="1"/>
	<rect x="18" y="6" class="st0" width="1" height="1"/>
	<rect x="6" y="8" transform="matrix(-1.836970e-016 1 -1 -1.836970e-016 15 2)" class="st0" width="1" height="1"/>
	<rect x="6" y="10" transform="matrix(-1.836970e-016 1 -1 -1.836970e-016 17 4)" class="st0" width="1" height="1"/>
	<rect x="6" y="12" transform="matrix(-1.836970e-016 1 -1 -1.836970e-016 19 6)" class="st0" width="1" height="1"/>
	<rect x="6" y="14" transform="matrix(-1.836970e-016 1 -1 -1.836970e-016 21 8)" class="st0" width="1" height="1"/>
	<rect x="6" y="16" transform="matrix(-1.836970e-016 1 -1 -1.836970e-016 23 10)" class="st0" width="1" height="1"/>
	<rect x="6" y="18" transform="matrix(-1.836970e-016 1 -1 -1.836970e-016 25 12)" class="st0" width="1" height="1"/>
	<rect x="4" y="2" transform="matrix(-1.836970e-016 1 -1 -1.836970e-016 7 -2)" class="st0" width="1" height="1"/>
	<rect x="4" y="4" transform="matrix(-1.836970e-016 1 -1 -1.836970e-016 9 8.881784e-016)" class="st0" width="1" height="1"/>
	<rect x="4" y="8" transform="matrix(-1.836970e-016 1 -1 -1.836970e-016 13 4)" class="st0" width="1" height="1"/>
	<rect x="4" y="10" transform="matrix(-1.836970e-016 1 -1 -1.836970e-016 15 6)" class="st0" width="1" height="1"/>
	<rect x="4" y="12" transform="matrix(-1.836970e-016 1 -1 -1.836970e-016 17 8)" class="st0" width="1" height="1"/>
	<rect x="4" y="14" transform="matrix(-1.836970e-016 1 -1 -1.836970e-016 19 10)" class="st0" width="1" height="1"/>
	<rect x="4" y="16" transform="matrix(-1.836970e-016 1 -1 -1.836970e-016 21 12)" class="st0" width="1" height="1"/>
	<rect x="4" y="18" transform="matrix(-1.836970e-016 1 -1 -1.836970e-016 23 14)" class="st0" width="1" height="1"/>
	<rect x="2" y="8" transform="matrix(-1.836970e-016 1 -1 -1.836970e-016 11 6)" class="st0" width="1" height="1"/>
	<rect x="2" y="10" transform="matrix(-1.836970e-016 1 -1 -1.836970e-016 13 8)" class="st0" width="1" height="1"/>
	<rect x="2" y="12" transform="matrix(-1.836970e-016 1 -1 -1.836970e-016 15 10)" class="st0" width="1" height="1"/>
	<rect x="2" y="14" transform="matrix(-1.836970e-016 1 -1 -1.836970e-016 17 12)" class="st0" width="1" height="1"/>
	<rect x="2" y="16" transform="matrix(-1.836970e-016 1 -1 -1.836970e-016 19 14)" class="st0" width="1" height="1"/>
	<rect x="2" y="18" transform="matrix(-1.836970e-016 1 -1 -1.836970e-016 21 16)" class="st0" width="1" height="1"/>
	<rect x="8" y="8" class="st0" width="1" height="1"/>
	<rect x="10" y="8" class="st0" width="1" height="1"/>
	<rect x="8" y="10" class="st0" width="1" height="1"/>
	<rect x="10" y="10" class="st0" width="1" height="1"/>
	<rect x="10" y="8" transform="matrix(-1.836970e-016 1 -1 -1.836970e-016 19 -2)" class="st0" width="1" height="1"/>
	<rect x="10" y="10" transform="matrix(-1.836970e-016 1 -1 -1.836970e-016 21 1.776357e-015)" class="st0" width="1" height="1"/>
</g>
<path class="st1" d="M19,6C11.8,6,6,11.8,6,19c0,7.2,5.8,13,13,13c7.2,0,13-5.8,13-13C32,11.8,26.2,6,19,6z M19,31
	c-6.6,0-12-5.4-12-12c0-6.6,5.4-12,12-12c3.3,0,6.3,1.3,8.5,3.5h0l0,0c2.2,2.2,3.5,5.2,3.5,8.5C31,25.6,25.6,31,19,31z"/>
<path class="st2" d="M19,27h-0.3l2.5,2.5l-0.7,0.7l-3.7-3.7l3.7-3.7l0.7,0.7L18.7,26c0,0,0,0,0,0H19c3.9,0,7-3.1,7-7
	c0-1.9-0.8-3.7-2-5l0.7-0.7c1.4,1.5,2.3,3.5,2.3,5.7C27,23.4,23.4,27,19,27z"/>
<path class="st3" d="M21.2,11.5l-3.7,3.7l-0.7-0.7l2.4-2.5c0,0,0,0,0,0c-0.1,0-0.2,0-0.3,0c-3.9,0-7,3.1-7,7c0,1.9,0.8,3.7,2,5
	l-0.7,0.7C11.9,23.2,11,21.2,11,19c0-4.4,3.6-8,8-8c0.1,0,0.2,0,0.3,0l-2.5-2.5l0.7-0.7L21.2,11.5z"/>
<rect x="19" y="19" class="st4" width="17" height="17"/>
</svg>
