<?xml version="1.0" encoding="utf-8"?>
<!-- Generator: Adobe Illustrator 19.2.0, SVG Export Plug-In . SVG Version: 6.00 Build 0)  -->
<svg version="1.1" id="Outlined_2_" xmlns="http://www.w3.org/2000/svg" xmlns:xlink="http://www.w3.org/1999/xlink" x="0px"
	 y="0px" viewBox="0 0 38 38" style="enable-background:new 0 0 38 38;" xml:space="preserve">
<style type="text/css">
	.st0{opacity:0.1;fill:#616161;}
	.st1{fill:#BDBDBD;}
	.st2{fill:#616161;}
</style>
<rect x="2" y="13" class="st0" width="27" height="23"/>
<g>
	<rect x="35" y="2" transform="matrix(-1.836970e-016 1 -1 -1.836970e-016 38 -33)" class="st1" width="1" height="1"/>
	<rect x="35" y="4" transform="matrix(-1.836970e-016 1 -1 -1.836970e-016 40 -31)" class="st1" width="1" height="1"/>
	<rect x="35" y="6" transform="matrix(-1.836970e-016 1 -1 -1.836970e-016 42 -29)" class="st1" width="1" height="1"/>
	<rect x="35" y="8" transform="matrix(-1.836970e-016 1 -1 -1.836970e-016 44 -27)" class="st1" width="1" height="1"/>
	<rect x="35" y="10" transform="matrix(-1.836970e-016 1 -1 -1.836970e-016 46 -25)" class="st1" width="1" height="1"/>
	<rect x="35" y="12" transform="matrix(-1.836970e-016 1 -1 -1.836970e-016 48 -23)" class="st1" width="1" height="1"/>
	<rect x="35" y="14" transform="matrix(-1.836970e-016 1 -1 -1.836970e-016 50 -21)" class="st1" width="1" height="1"/>
	<rect x="35" y="16" transform="matrix(-1.836970e-016 1 -1 -1.836970e-016 52 -19)" class="st1" width="1" height="1"/>
	<rect x="35" y="18" transform="matrix(-1.836970e-016 1 -1 -1.836970e-016 54 -17)" class="st1" width="1" height="1"/>
	<rect x="33" y="2" transform="matrix(-1.836970e-016 1 -1 -1.836970e-016 36 -31)" class="st1" width="1" height="1"/>
	<rect x="33" y="4" transform="matrix(-1.836970e-016 1 -1 -1.836970e-016 38 -29)" class="st1" width="1" height="1"/>
	<rect x="33" y="6" transform="matrix(-1.836970e-016 1 -1 -1.836970e-016 40 -27)" class="st1" width="1" height="1"/>
	<rect x="33" y="8" transform="matrix(-1.836970e-016 1 -1 -1.836970e-016 42 -25)" class="st1" width="1" height="1"/>
	<rect x="33" y="10" transform="matrix(-1.836970e-016 1 -1 -1.836970e-016 44 -23)" class="st1" width="1" height="1"/>
	<rect x="33" y="12" transform="matrix(-1.836970e-016 1 -1 -1.836970e-016 46 -21)" class="st1" width="1" height="1"/>
	<rect x="33" y="14" transform="matrix(-1.836970e-016 1 -1 -1.836970e-016 48 -19)" class="st1" width="1" height="1"/>
	<rect x="33" y="16" transform="matrix(-1.836970e-016 1 -1 -1.836970e-016 50 -17)" class="st1" width="1" height="1"/>
	<rect x="33" y="18" transform="matrix(-1.836970e-016 1 -1 -1.836970e-016 52 -15)" class="st1" width="1" height="1"/>
	<rect x="31" y="2" transform="matrix(-1.836970e-016 1 -1 -1.836970e-016 34 -29)" class="st1" width="1" height="1"/>
	<rect x="31" y="4" transform="matrix(-1.836970e-016 1 -1 -1.836970e-016 36 -27)" class="st1" width="1" height="1"/>
	<rect x="31" y="6" transform="matrix(-1.836970e-016 1 -1 -1.836970e-016 38 -25)" class="st1" width="1" height="1"/>
	<rect x="31" y="8" transform="matrix(-1.836970e-016 1 -1 -1.836970e-016 40 -23)" class="st1" width="1" height="1"/>
	<rect x="31" y="10" transform="matrix(-1.836970e-016 1 -1 -1.836970e-016 42 -21)" class="st1" width="1" height="1"/>
	<rect x="31" y="12" transform="matrix(-1.836970e-016 1 -1 -1.836970e-016 44 -19)" class="st1" width="1" height="1"/>
	<rect x="31" y="14" transform="matrix(-1.836970e-016 1 -1 -1.836970e-016 46 -17)" class="st1" width="1" height="1"/>
	<rect x="31" y="16" transform="matrix(-1.836970e-016 1 -1 -1.836970e-016 48 -15)" class="st1" width="1" height="1"/>
	<rect x="31" y="18" transform="matrix(-1.836970e-016 1 -1 -1.836970e-016 50 -13)" class="st1" width="1" height="1"/>
	<rect x="29" y="6" transform="matrix(-1 -1.224647e-016 1.224647e-016 -1 59 13)" class="st1" width="1" height="1"/>
	<rect x="27" y="6" transform="matrix(-1 -1.224647e-016 1.224647e-016 -1 55 13)" class="st1" width="1" height="1"/>
	<rect x="25" y="6" transform="matrix(-1 -1.224647e-016 1.224647e-016 -1 51 13)" class="st1" width="1" height="1"/>
	<rect x="23" y="6" transform="matrix(-1 -1.224647e-016 1.224647e-016 -1 47 13)" class="st1" width="1" height="1"/>
	<rect x="21" y="6" transform="matrix(-1 -1.224647e-016 1.224647e-016 -1 43 13)" class="st1" width="1" height="1"/>
	<rect x="19" y="6" transform="matrix(-1 -1.224647e-016 1.224647e-016 -1 39 13)" class="st1" width="1" height="1"/>
	<rect x="35" y="4" transform="matrix(-1 -1.224647e-016 1.224647e-016 -1 71 9)" class="st1" width="1" height="1"/>
	<rect x="33" y="4" transform="matrix(-1 -1.224647e-016 1.224647e-016 -1 67 9)" class="st1" width="1" height="1"/>
	<rect x="29" y="4" transform="matrix(-1 -1.224647e-016 1.224647e-016 -1 59 9)" class="st1" width="1" height="1"/>
	<rect x="27" y="4" transform="matrix(-1 -1.224647e-016 1.224647e-016 -1 55 9)" class="st1" width="1" height="1"/>
	<rect x="25" y="4" transform="matrix(-1 -1.224647e-016 1.224647e-016 -1 51 9)" class="st1" width="1" height="1"/>
	<rect x="23" y="4" transform="matrix(-1 -1.224647e-016 1.224647e-016 -1 47 9)" class="st1" width="1" height="1"/>
	<rect x="21" y="4" transform="matrix(-1 -1.224647e-016 1.224647e-016 -1 43 9)" class="st1" width="1" height="1"/>
	<rect x="19" y="4" transform="matrix(-1 -1.224647e-016 1.224647e-016 -1 39 9)" class="st1" width="1" height="1"/>
	<rect x="29" y="2" transform="matrix(-1 -1.224647e-016 1.224647e-016 -1 59 5)" class="st1" width="1" height="1"/>
	<rect x="27" y="2" transform="matrix(-1 -1.224647e-016 1.224647e-016 -1 55 5)" class="st1" width="1" height="1"/>
	<rect x="25" y="2" transform="matrix(-1 -1.224647e-016 1.224647e-016 -1 51 5)" class="st1" width="1" height="1"/>
	<rect x="23" y="2" transform="matrix(-1 -1.224647e-016 1.224647e-016 -1 47 5)" class="st1" width="1" height="1"/>
	<rect x="21" y="2" transform="matrix(-1 -1.224647e-016 1.224647e-016 -1 43 5)" class="st1" width="1" height="1"/>
	<rect x="19" y="2" transform="matrix(-1 -1.224647e-016 1.224647e-016 -1 39 5)" class="st1" width="1" height="1"/>
	<rect x="29" y="8" transform="matrix(-1.836970e-016 1 -1 -1.836970e-016 38 -21)" class="st1" width="1" height="1"/>
	<rect x="29" y="10" transform="matrix(-1.836970e-016 1 -1 -1.836970e-016 40 -19)" class="st1" width="1" height="1"/>
	<rect x="27" y="8" transform="matrix(-1.836970e-016 1 -1 -1.836970e-016 36 -19)" class="st1" width="1" height="1"/>
	<rect x="27" y="10" transform="matrix(-1.836970e-016 1 -1 -1.836970e-016 38 -17)" class="st1" width="1" height="1"/>
	<rect x="29" y="10" transform="matrix(-1 -1.224647e-016 1.224647e-016 -1 59 21)" class="st1" width="1" height="1"/>
	<rect x="27" y="10" transform="matrix(-1 -1.224647e-016 1.224647e-016 -1 55 21)" class="st1" width="1" height="1"/>
</g>
<g>
	<path class="st2" d="M30.7,25c-2.8-2.9-7.1-6.1-9.9-8.5l-2.1-2.1l2.1-2.1c2.1-2.1,5-0.7,5-0.7v-1.4c0,0-2.1-2.1-4.9-2.1
		c-2.8,0-5,2.1-5.7,2.8c0,0-1.4-1.4-2.8,0l-0.7,0.7c-1.4,1.4,0,2.8,0,2.8l-1.3,1.3l-2.2-0.6L6,17.2l0,1.4l5,4.9h1.4l2.1-2.1
		l-0.7-2.1l0,0l1.4-1.4l2.1,2.1c2.4,2.8,5.6,7.1,8.5,9.9c2.1,2.1,4.6-0.4,4.6-0.4S32.9,27.1,30.7,25z M29.7,28.8
		c-0.3,0.3-1.9,1.7-3.2,0.4c-2-2-4.2-4.7-6.1-7c-0.8-1-1.6-2-2.3-2.8L18,19.3l0.7-0.7l-0.7-0.7l-0.7,0.7l-2.1-2.1l-2.1,2.1l-0.7,0.7
		l0.5,0.5l0.4,1.3l-1.4,1.4h-0.6L7,18.2v-0.6l1.4-1.4l1.6,0.5l0.6,0.2l1.8-1.8l0.7-0.7l-0.7-0.7c-0.3-0.3-0.6-0.8,0-1.4l0.7-0.7
		c0.6-0.6,1.1-0.3,1.4,0l0.7,0.7l0.7-0.7c0.6-0.6,2.5-2.5,5-2.5c1.3,0,2.5,0.6,3.3,1.1c-1.2-0.1-2.7,0.1-4,1.4l-2.8,2.8l2.1,2.1
		l-0.7,0.7l0.7,0.7l0.7-0.7l0.1,0.1c0.8,0.7,1.8,1.5,2.8,2.3c2.4,1.9,5.1,4.1,7,6.1C31.4,27,30,28.6,29.7,28.8z"/>
</g>
</svg>
