<?xml version="1.0" encoding="utf-8"?>
<!-- Generator: Adobe Illustrator 19.2.0, SVG Export Plug-In . SVG Version: 6.00 Build 0)  -->
<svg version="1.1" id="Outlined_2_" xmlns="http://www.w3.org/2000/svg" xmlns:xlink="http://www.w3.org/1999/xlink" x="0px"
	 y="0px" viewBox="0 0 38 38" style="enable-background:new 0 0 38 38;" xml:space="preserve">
<style type="text/css">
	.st0{fill:#BDBDBD;}
	.st1{fill:#29B6F6;}
	.st2{fill:#616161;}
	.st3{opacity:0.1;fill:#616161;}
</style>
<g>
	<rect x="35" y="35" transform="matrix(-1 -1.224647e-016 1.224647e-016 -1 71 71)" class="st0" width="1" height="1"/>
	<rect x="33" y="35" transform="matrix(-1 -1.224647e-016 1.224647e-016 -1 67 71)" class="st0" width="1" height="1"/>
	<rect x="31" y="35" transform="matrix(-1 -1.224647e-016 1.224647e-016 -1 63 71)" class="st0" width="1" height="1"/>
	<rect x="29" y="35" transform="matrix(-1 -1.224647e-016 1.224647e-016 -1 59 71)" class="st0" width="1" height="1"/>
	<rect x="27" y="35" transform="matrix(-1 -1.224647e-016 1.224647e-016 -1 55 71)" class="st0" width="1" height="1"/>
	<rect x="25" y="35" transform="matrix(-1 -1.224647e-016 1.224647e-016 -1 51 71)" class="st0" width="1" height="1"/>
	<rect x="23" y="35" transform="matrix(-1 -1.224647e-016 1.224647e-016 -1 47 71)" class="st0" width="1" height="1"/>
	<rect x="21" y="35" transform="matrix(-1 -1.224647e-016 1.224647e-016 -1 43 71)" class="st0" width="1" height="1"/>
	<rect x="19" y="35" transform="matrix(-1 -1.224647e-016 1.224647e-016 -1 39 71)" class="st0" width="1" height="1"/>
	<rect x="35" y="33" transform="matrix(-1 -1.224647e-016 1.224647e-016 -1 71 67)" class="st0" width="1" height="1"/>
	<rect x="33" y="33" transform="matrix(-1 -1.224647e-016 1.224647e-016 -1 67 67)" class="st0" width="1" height="1"/>
	<rect x="31" y="33" transform="matrix(-1 -1.224647e-016 1.224647e-016 -1 63 67)" class="st0" width="1" height="1"/>
	<rect x="29" y="33" transform="matrix(-1 -1.224647e-016 1.224647e-016 -1 59 67)" class="st0" width="1" height="1"/>
	<rect x="27" y="33" transform="matrix(-1 -1.224647e-016 1.224647e-016 -1 55 67)" class="st0" width="1" height="1"/>
	<rect x="25" y="33" transform="matrix(-1 -1.224647e-016 1.224647e-016 -1 51 67)" class="st0" width="1" height="1"/>
	<rect x="23" y="33" transform="matrix(-1 -1.224647e-016 1.224647e-016 -1 47 67)" class="st0" width="1" height="1"/>
	<rect x="21" y="33" transform="matrix(-1 -1.224647e-016 1.224647e-016 -1 43 67)" class="st0" width="1" height="1"/>
	<rect x="19" y="33" transform="matrix(-1 -1.224647e-016 1.224647e-016 -1 39 67)" class="st0" width="1" height="1"/>
	<rect x="35" y="31" transform="matrix(-1 -1.224647e-016 1.224647e-016 -1 71 63)" class="st0" width="1" height="1"/>
	<rect x="33" y="31" transform="matrix(-1 -1.224647e-016 1.224647e-016 -1 67 63)" class="st0" width="1" height="1"/>
	<rect x="31" y="31" transform="matrix(-1 -1.224647e-016 1.224647e-016 -1 63 63)" class="st0" width="1" height="1"/>
	<rect x="29" y="31" transform="matrix(-1 -1.224647e-016 1.224647e-016 -1 59 63)" class="st0" width="1" height="1"/>
	<rect x="27" y="31" transform="matrix(-1 -1.224647e-016 1.224647e-016 -1 55 63)" class="st0" width="1" height="1"/>
	<rect x="25" y="31" transform="matrix(-1 -1.224647e-016 1.224647e-016 -1 51 63)" class="st0" width="1" height="1"/>
	<rect x="23" y="31" transform="matrix(-1 -1.224647e-016 1.224647e-016 -1 47 63)" class="st0" width="1" height="1"/>
	<rect x="21" y="31" transform="matrix(-1 -1.224647e-016 1.224647e-016 -1 43 63)" class="st0" width="1" height="1"/>
	<rect x="19" y="31" transform="matrix(-1 -1.224647e-016 1.224647e-016 -1 39 63)" class="st0" width="1" height="1"/>
	<rect x="31" y="29" transform="matrix(6.123234e-017 -1 1 6.123234e-017 2 61)" class="st0" width="1" height="1"/>
	<rect x="31" y="27" transform="matrix(6.123234e-017 -1 1 6.123234e-017 4 59)" class="st0" width="1" height="1"/>
	<rect x="31" y="25" transform="matrix(6.123234e-017 -1 1 6.123234e-017 6 57)" class="st0" width="1" height="1"/>
	<rect x="31" y="23" transform="matrix(6.123234e-017 -1 1 6.123234e-017 8 55)" class="st0" width="1" height="1"/>
	<rect x="31" y="21" transform="matrix(6.123234e-017 -1 1 6.123234e-017 10 53)" class="st0" width="1" height="1"/>
	<rect x="31" y="19" transform="matrix(6.123234e-017 -1 1 6.123234e-017 12 51)" class="st0" width="1" height="1"/>
	<rect x="33" y="35" transform="matrix(6.123234e-017 -1 1 6.123234e-017 -2 69)" class="st0" width="1" height="1"/>
	<rect x="33" y="33" transform="matrix(6.123234e-017 -1 1 6.123234e-017 0 67)" class="st0" width="1" height="1"/>
	<rect x="33" y="29" transform="matrix(6.123234e-017 -1 1 6.123234e-017 4 63)" class="st0" width="1" height="1"/>
	<rect x="33" y="27" transform="matrix(6.123234e-017 -1 1 6.123234e-017 6 61)" class="st0" width="1" height="1"/>
	<rect x="33" y="25" transform="matrix(6.123234e-017 -1 1 6.123234e-017 8 59)" class="st0" width="1" height="1"/>
	<rect x="33" y="23" transform="matrix(6.123234e-017 -1 1 6.123234e-017 10 57)" class="st0" width="1" height="1"/>
	<rect x="33" y="21" transform="matrix(6.123234e-017 -1 1 6.123234e-017 12 55)" class="st0" width="1" height="1"/>
	<rect x="33" y="19" transform="matrix(6.123234e-017 -1 1 6.123234e-017 14 53)" class="st0" width="1" height="1"/>
	<rect x="35" y="29" transform="matrix(6.123234e-017 -1 1 6.123234e-017 6 65)" class="st0" width="1" height="1"/>
	<rect x="35" y="27" transform="matrix(6.123234e-017 -1 1 6.123234e-017 8 63)" class="st0" width="1" height="1"/>
	<rect x="35" y="25" transform="matrix(6.123234e-017 -1 1 6.123234e-017 10 61)" class="st0" width="1" height="1"/>
	<rect x="35" y="23" transform="matrix(6.123234e-017 -1 1 6.123234e-017 12 59)" class="st0" width="1" height="1"/>
	<rect x="35" y="21" transform="matrix(6.123234e-017 -1 1 6.123234e-017 14 57)" class="st0" width="1" height="1"/>
	<rect x="35" y="19" transform="matrix(6.123234e-017 -1 1 6.123234e-017 16 55)" class="st0" width="1" height="1"/>
	<rect x="29" y="29" transform="matrix(-1 -1.224647e-016 1.224647e-016 -1 59 59)" class="st0" width="1" height="1"/>
	<rect x="27" y="29" transform="matrix(-1 -1.224647e-016 1.224647e-016 -1 55 59)" class="st0" width="1" height="1"/>
	<rect x="29" y="27" transform="matrix(-1 -1.224647e-016 1.224647e-016 -1 59 55)" class="st0" width="1" height="1"/>
	<rect x="27" y="27" transform="matrix(-1 -1.224647e-016 1.224647e-016 -1 55 55)" class="st0" width="1" height="1"/>
	<rect x="27" y="29" transform="matrix(6.123234e-017 -1 1 6.123234e-017 -2 57)" class="st0" width="1" height="1"/>
	<rect x="27" y="27" transform="matrix(6.123234e-017 -1 1 6.123234e-017 0 55)" class="st0" width="1" height="1"/>
</g>
<g>
	<path class="st1" d="M28.9,21.8L28.9,21.8l-0.1-0.1l-4.7-3.6l0.6-0.6L24,16.9l-0.7-0.7l-0.7,0.7l0.7,0.7l-0.7,0.7l5.7,4.3
		c2.8,2.8,0,5.7,0,5.7s-1.3,1.3-2.9,1.3c-0.8,0-1.8-0.3-2.7-1.3l-4.3-5.7l-0.7,0.7l0,0l-0.7,0.7l0,0l0.7,0.7l0.6-0.6l3.6,4.7l0,0.1
		l0,0.1c1,1,2.2,1.5,3.4,1.5c2.1,0,3.6-1.5,3.6-1.5C30.1,27.7,31.7,24.6,28.9,21.8z"/>
	<g>
		<polygon class="st2" points="18.3,18.3 17.6,19 12.6,14 11.2,14 9.1,10.5 10.5,9.1 14,11.2 14,12.6 19.7,18.3 21.8,16.2 
			22.5,15.5 21.8,14.8 21.1,15.5 19.7,16.9 15,12.2 15,10.7 14.6,10.4 11,8.2 10.4,7.8 9.8,8.4 8.4,9.8 7.8,10.4 8.2,11 10.4,14.6 
			10.7,15 12.2,15 16.9,19.7 15.5,21.1 14.8,21.8 15.5,22.5 16.1,23.2 16.9,22.5 16.9,22.5 16.7,22.6 16.9,22.5 16.2,21.8 19,19 		
			"/>
	</g>
	<polygon class="st2" points="23.2,17.6 22.5,16.9 22.5,16.9 	"/>
</g>
<rect x="2" y="2" class="st3" width="24" height="25"/>
</svg>
