<?xml version="1.0" encoding="utf-8"?>
<!-- Generator: Adobe Illustrator 19.2.0, SVG Export Plug-In . SVG Version: 6.00 Build 0)  -->
<svg version="1.1" id="Outlined_2_" xmlns="http://www.w3.org/2000/svg" xmlns:xlink="http://www.w3.org/1999/xlink" x="0px"
	 y="0px" viewBox="0 0 38 38" style="enable-background:new 0 0 38 38;" xml:space="preserve">
<style type="text/css">
	.st0{opacity:0.1;fill:#616161;}
	.st1{fill:#BDBDBD;}
	.st2{fill:#616161;}
	.st3{fill:#E53935;}
	.st4{fill:none;}
</style>
<rect x="2" y="2" transform="matrix(-1 -1.224647e-016 1.224647e-016 -1 21.0135 27)" class="st0" width="17" height="23"/>
<g>
	<rect x="35" y="35" transform="matrix(-1 -1.224647e-016 1.224647e-016 -1 71 71)" class="st1" width="1" height="1"/>
	<rect x="33" y="35" transform="matrix(-1 -1.224647e-016 1.224647e-016 -1 67 71)" class="st1" width="1" height="1"/>
	<rect x="31" y="35" transform="matrix(-1 -1.224647e-016 1.224647e-016 -1 63 71)" class="st1" width="1" height="1"/>
	<rect x="29" y="35" transform="matrix(-1 -1.224647e-016 1.224647e-016 -1 59 71)" class="st1" width="1" height="1"/>
	<rect x="27" y="35" transform="matrix(-1 -1.224647e-016 1.224647e-016 -1 55 71)" class="st1" width="1" height="1"/>
	<rect x="25" y="35" transform="matrix(-1 -1.224647e-016 1.224647e-016 -1 51 71)" class="st1" width="1" height="1"/>
	<rect x="23" y="35" transform="matrix(-1 -1.224647e-016 1.224647e-016 -1 47 71)" class="st1" width="1" height="1"/>
	<rect x="21" y="35" transform="matrix(-1 -1.224647e-016 1.224647e-016 -1 43 71)" class="st1" width="1" height="1"/>
	<rect x="19" y="35" transform="matrix(-1 -1.224647e-016 1.224647e-016 -1 39 71)" class="st1" width="1" height="1"/>
	<rect x="35" y="33" transform="matrix(-1 -1.224647e-016 1.224647e-016 -1 71 67)" class="st1" width="1" height="1"/>
	<rect x="33" y="33" transform="matrix(-1 -1.224647e-016 1.224647e-016 -1 67 67)" class="st1" width="1" height="1"/>
	<rect x="31" y="33" transform="matrix(-1 -1.224647e-016 1.224647e-016 -1 63 67)" class="st1" width="1" height="1"/>
	<rect x="29" y="33" transform="matrix(-1 -1.224647e-016 1.224647e-016 -1 59 67)" class="st1" width="1" height="1"/>
	<rect x="27" y="33" transform="matrix(-1 -1.224647e-016 1.224647e-016 -1 55 67)" class="st1" width="1" height="1"/>
	<rect x="25" y="33" transform="matrix(-1 -1.224647e-016 1.224647e-016 -1 51 67)" class="st1" width="1" height="1"/>
	<rect x="23" y="33" transform="matrix(-1 -1.224647e-016 1.224647e-016 -1 47 67)" class="st1" width="1" height="1"/>
	<rect x="21" y="33" transform="matrix(-1 -1.224647e-016 1.224647e-016 -1 43 67)" class="st1" width="1" height="1"/>
	<rect x="19" y="33" transform="matrix(-1 -1.224647e-016 1.224647e-016 -1 39 67)" class="st1" width="1" height="1"/>
	<rect x="35" y="31" transform="matrix(-1 -1.224647e-016 1.224647e-016 -1 71 63)" class="st1" width="1" height="1"/>
	<rect x="33" y="31" transform="matrix(-1 -1.224647e-016 1.224647e-016 -1 67 63)" class="st1" width="1" height="1"/>
	<rect x="31" y="31" transform="matrix(-1 -1.224647e-016 1.224647e-016 -1 63 63)" class="st1" width="1" height="1"/>
	<rect x="29" y="31" transform="matrix(-1 -1.224647e-016 1.224647e-016 -1 59 63)" class="st1" width="1" height="1"/>
	<rect x="27" y="31" transform="matrix(-1 -1.224647e-016 1.224647e-016 -1 55 63)" class="st1" width="1" height="1"/>
	<rect x="25" y="31" transform="matrix(-1 -1.224647e-016 1.224647e-016 -1 51 63)" class="st1" width="1" height="1"/>
	<rect x="23" y="31" transform="matrix(-1 -1.224647e-016 1.224647e-016 -1 47 63)" class="st1" width="1" height="1"/>
	<rect x="21" y="31" transform="matrix(-1 -1.224647e-016 1.224647e-016 -1 43 63)" class="st1" width="1" height="1"/>
	<rect x="19" y="31" transform="matrix(-1 -1.224647e-016 1.224647e-016 -1 39 63)" class="st1" width="1" height="1"/>
	<rect x="31" y="29" transform="matrix(6.123234e-017 -1 1 6.123234e-017 2 61)" class="st1" width="1" height="1"/>
	<rect x="31" y="27" transform="matrix(6.123234e-017 -1 1 6.123234e-017 4 59)" class="st1" width="1" height="1"/>
	<rect x="31" y="25" transform="matrix(6.123234e-017 -1 1 6.123234e-017 6 57)" class="st1" width="1" height="1"/>
	<rect x="31" y="23" transform="matrix(6.123234e-017 -1 1 6.123234e-017 8 55)" class="st1" width="1" height="1"/>
	<rect x="31" y="21" transform="matrix(6.123234e-017 -1 1 6.123234e-017 10 53)" class="st1" width="1" height="1"/>
	<rect x="31" y="19" transform="matrix(6.123234e-017 -1 1 6.123234e-017 12 51)" class="st1" width="1" height="1"/>
	<rect x="33" y="35" transform="matrix(6.123234e-017 -1 1 6.123234e-017 -2 69)" class="st1" width="1" height="1"/>
	<rect x="33" y="33" transform="matrix(6.123234e-017 -1 1 6.123234e-017 0 67)" class="st1" width="1" height="1"/>
	<rect x="33" y="29" transform="matrix(6.123234e-017 -1 1 6.123234e-017 4 63)" class="st1" width="1" height="1"/>
	<rect x="33" y="27" transform="matrix(6.123234e-017 -1 1 6.123234e-017 6 61)" class="st1" width="1" height="1"/>
	<rect x="33" y="25" transform="matrix(6.123234e-017 -1 1 6.123234e-017 8 59)" class="st1" width="1" height="1"/>
	<rect x="33" y="23" transform="matrix(6.123234e-017 -1 1 6.123234e-017 10 57)" class="st1" width="1" height="1"/>
	<rect x="33" y="21" transform="matrix(6.123234e-017 -1 1 6.123234e-017 12 55)" class="st1" width="1" height="1"/>
	<rect x="33" y="19" transform="matrix(6.123234e-017 -1 1 6.123234e-017 14 53)" class="st1" width="1" height="1"/>
	<rect x="35" y="29" transform="matrix(6.123234e-017 -1 1 6.123234e-017 6 65)" class="st1" width="1" height="1"/>
	<rect x="35" y="27" transform="matrix(6.123234e-017 -1 1 6.123234e-017 8 63)" class="st1" width="1" height="1"/>
	<rect x="35" y="25" transform="matrix(6.123234e-017 -1 1 6.123234e-017 10 61)" class="st1" width="1" height="1"/>
	<rect x="35" y="23" transform="matrix(6.123234e-017 -1 1 6.123234e-017 12 59)" class="st1" width="1" height="1"/>
	<rect x="35" y="21" transform="matrix(6.123234e-017 -1 1 6.123234e-017 14 57)" class="st1" width="1" height="1"/>
	<rect x="35" y="19" transform="matrix(6.123234e-017 -1 1 6.123234e-017 16 55)" class="st1" width="1" height="1"/>
	<rect x="29" y="29" transform="matrix(-1 -1.224647e-016 1.224647e-016 -1 59 59)" class="st1" width="1" height="1"/>
	<rect x="27" y="29" transform="matrix(-1 -1.224647e-016 1.224647e-016 -1 55 59)" class="st1" width="1" height="1"/>
	<rect x="29" y="27" transform="matrix(-1 -1.224647e-016 1.224647e-016 -1 59 55)" class="st1" width="1" height="1"/>
	<rect x="27" y="27" transform="matrix(-1 -1.224647e-016 1.224647e-016 -1 55 55)" class="st1" width="1" height="1"/>
	<rect x="27" y="29" transform="matrix(6.123234e-017 -1 1 6.123234e-017 -2 57)" class="st1" width="1" height="1"/>
	<rect x="27" y="27" transform="matrix(6.123234e-017 -1 1 6.123234e-017 0 55)" class="st1" width="1" height="1"/>
</g>
<path class="st2" d="M19,11c1.1,0,2,0.9,2,2s-0.9,2-2,2s-2-0.9-2-2S17.9,11,19,11L19,11z M19,10c-1.7,0-3,1.3-3,3s1.3,3,3,3
	s3-1.3,3-3S20.7,10,19,10L19,10z"/>
<path class="st2" d="M19,17c1.1,0,2,0.9,2,2s-0.9,2-2,2s-2-0.9-2-2S17.9,17,19,17L19,17z M19,16c-1.7,0-3,1.3-3,3s1.3,3,3,3
	s3-1.3,3-3S20.7,16,19,16L19,16z"/>
<path class="st3" d="M19,23c1.1,0,2,0.9,2,2c0,1.1-0.9,2-2,2s-2-0.9-2-2C17,23.9,17.9,23,19,23L19,23z M19,22c-1.7,0-3,1.3-3,3
	s1.3,3,3,3s3-1.3,3-3S20.7,22,19,22L19,22z"/>
<g>
	<path class="st4" d="M13,11H9c0,0,0,4,4,4v-2V11z"/>
	<path class="st2" d="M30,11v-1h-5c0-2-2-2-2-2h-2c0,0,0-2-2-2s-2,2-2,2h-2c-2,0-2,2-2,2H8v1c0,1.7,1,5,5,5H8v1c0,1.7,1,5,5,5H8v1
		c0,1.7,1,5,5,5c0,2,2,2,2,2h2c0,0,0,2,2,2s2-2,2-2h2c2,0,2-2,2-2c4,0,5-3.3,5-5v-1h-5c4,0,5-3.3,5-5v-1h-5C29,16,30,12.7,30,11z
		 M25,15h-1v4h1v-2h4c0,0,0,4-4,4h-1v4h1v-2h4c0,0,0,4-4,4h-1v1c0,0.5-0.2,1-1,1h-2l-1,0l0,1c0,0.5-0.2,1-1,1c-0.8,0-1-0.5-1-1v-1
		h-3c-0.5,0-1-0.2-1-1v-1h-1c-4,0-4-4-4-4h4v2h1v-4h-1c-4,0-4-4-4-4h4v2h1v-4h-1c-4,0-4-4-4-4h4v2h1v-3c0-0.5,0.2-1,1-1h2l1,0l0-1
		c0-0.5,0.2-1,1-1c0.8,0,1,0.5,1,1v1h3c0.5,0,1,0.2,1,1v3h1v-2h4C29,11,29,15,25,15z"/>
</g>
</svg>
