<?xml version="1.0" encoding="utf-8"?>
<!-- Generator: Adobe Illustrator 19.2.0, SVG Export Plug-In . SVG Version: 6.00 Build 0)  -->
<svg version="1.1" id="Outlined_2_" xmlns="http://www.w3.org/2000/svg" xmlns:xlink="http://www.w3.org/1999/xlink" x="0px"
	 y="0px" viewBox="0 0 38 38" style="enable-background:new 0 0 38 38;" xml:space="preserve">
<style type="text/css">
	.st0{opacity:0.1;fill:#616161;}
	.st1{fill:#BDBDBD;}
	.st2{fill:#616161;}
	.st3{fill:#FB8C00;}
	.st4{fill:none;}
</style>
<rect x="19" y="13" class="st0" width="17" height="23"/>
<g>
	<rect x="2" y="2" class="st1" width="1" height="1"/>
	<rect x="4" y="2" class="st1" width="1" height="1"/>
	<rect x="6" y="2" class="st1" width="1" height="1"/>
	<rect x="8" y="2" class="st1" width="1" height="1"/>
	<rect x="10" y="2" class="st1" width="1" height="1"/>
	<rect x="12" y="2" class="st1" width="1" height="1"/>
	<rect x="14" y="2" class="st1" width="1" height="1"/>
	<rect x="16" y="2" class="st1" width="1" height="1"/>
	<rect x="18" y="2" class="st1" width="1" height="1"/>
	<rect x="2" y="4" class="st1" width="1" height="1"/>
	<rect x="4" y="4" class="st1" width="1" height="1"/>
	<rect x="6" y="4" class="st1" width="1" height="1"/>
	<rect x="8" y="4" class="st1" width="1" height="1"/>
	<rect x="10" y="4" class="st1" width="1" height="1"/>
	<rect x="12" y="4" class="st1" width="1" height="1"/>
	<rect x="14" y="4" class="st1" width="1" height="1"/>
	<rect x="16" y="4" class="st1" width="1" height="1"/>
	<rect x="18" y="4" class="st1" width="1" height="1"/>
	<rect x="2" y="6" class="st1" width="1" height="1"/>
	<rect x="4" y="6" class="st1" width="1" height="1"/>
	<rect x="6" y="6" class="st1" width="1" height="1"/>
	<rect x="8" y="6" class="st1" width="1" height="1"/>
	<rect x="10" y="6" class="st1" width="1" height="1"/>
	<rect x="12" y="6" class="st1" width="1" height="1"/>
	<rect x="14" y="6" class="st1" width="1" height="1"/>
	<rect x="16" y="6" class="st1" width="1" height="1"/>
	<rect x="18" y="6" class="st1" width="1" height="1"/>
	<rect x="6" y="8" transform="matrix(-1.836970e-016 1 -1 -1.836970e-016 15 2)" class="st1" width="1" height="1"/>
	<rect x="6" y="10" transform="matrix(-1.836970e-016 1 -1 -1.836970e-016 17 4)" class="st1" width="1" height="1"/>
	<rect x="6" y="12" transform="matrix(-1.836970e-016 1 -1 -1.836970e-016 19 6)" class="st1" width="1" height="1"/>
	<rect x="6" y="14" transform="matrix(-1.836970e-016 1 -1 -1.836970e-016 21 8)" class="st1" width="1" height="1"/>
	<rect x="6" y="16" transform="matrix(-1.836970e-016 1 -1 -1.836970e-016 23 10)" class="st1" width="1" height="1"/>
	<rect x="6" y="18" transform="matrix(-1.836970e-016 1 -1 -1.836970e-016 25 12)" class="st1" width="1" height="1"/>
	<rect x="4" y="2" transform="matrix(-1.836970e-016 1 -1 -1.836970e-016 7 -2)" class="st1" width="1" height="1"/>
	<rect x="4" y="4" transform="matrix(-1.836970e-016 1 -1 -1.836970e-016 9 8.881784e-016)" class="st1" width="1" height="1"/>
	<rect x="4" y="8" transform="matrix(-1.836970e-016 1 -1 -1.836970e-016 13 4)" class="st1" width="1" height="1"/>
	<rect x="4" y="10" transform="matrix(-1.836970e-016 1 -1 -1.836970e-016 15 6)" class="st1" width="1" height="1"/>
	<rect x="4" y="12" transform="matrix(-1.836970e-016 1 -1 -1.836970e-016 17 8)" class="st1" width="1" height="1"/>
	<rect x="4" y="14" transform="matrix(-1.836970e-016 1 -1 -1.836970e-016 19 10)" class="st1" width="1" height="1"/>
	<rect x="4" y="16" transform="matrix(-1.836970e-016 1 -1 -1.836970e-016 21 12)" class="st1" width="1" height="1"/>
	<rect x="4" y="18" transform="matrix(-1.836970e-016 1 -1 -1.836970e-016 23 14)" class="st1" width="1" height="1"/>
	<rect x="2" y="8" transform="matrix(-1.836970e-016 1 -1 -1.836970e-016 11 6)" class="st1" width="1" height="1"/>
	<rect x="2" y="10" transform="matrix(-1.836970e-016 1 -1 -1.836970e-016 13 8)" class="st1" width="1" height="1"/>
	<rect x="2" y="12" transform="matrix(-1.836970e-016 1 -1 -1.836970e-016 15 10)" class="st1" width="1" height="1"/>
	<rect x="2" y="14" transform="matrix(-1.836970e-016 1 -1 -1.836970e-016 17 12)" class="st1" width="1" height="1"/>
	<rect x="2" y="16" transform="matrix(-1.836970e-016 1 -1 -1.836970e-016 19 14)" class="st1" width="1" height="1"/>
	<rect x="2" y="18" transform="matrix(-1.836970e-016 1 -1 -1.836970e-016 21 16)" class="st1" width="1" height="1"/>
	<rect x="8" y="8" class="st1" width="1" height="1"/>
	<rect x="10" y="8" class="st1" width="1" height="1"/>
	<rect x="8" y="10" class="st1" width="1" height="1"/>
	<rect x="10" y="10" class="st1" width="1" height="1"/>
	<rect x="10" y="8" transform="matrix(-1.836970e-016 1 -1 -1.836970e-016 19 -2)" class="st1" width="1" height="1"/>
	<rect x="10" y="10" transform="matrix(-1.836970e-016 1 -1 -1.836970e-016 21 1.776357e-015)" class="st1" width="1" height="1"/>
</g>
<path class="st2" d="M19,11c1.1,0,2,0.9,2,2s-0.9,2-2,2s-2-0.9-2-2S17.9,11,19,11L19,11z M19,10c-1.7,0-3,1.3-3,3s1.3,3,3,3
	s3-1.3,3-3S20.7,10,19,10L19,10z"/>
<path class="st3" d="M19,17c1.1,0,2,0.9,2,2s-0.9,2-2,2s-2-0.9-2-2S17.9,17,19,17L19,17z M19,16c-1.7,0-3,1.3-3,3s1.3,3,3,3
	s3-1.3,3-3S20.7,16,19,16L19,16z"/>
<path class="st2" d="M19,23c1.1,0,2,0.9,2,2c0,1.1-0.9,2-2,2s-2-0.9-2-2C17,23.9,17.9,23,19,23L19,23z M19,22c-1.7,0-3,1.3-3,3
	s1.3,3,3,3s3-1.3,3-3S20.7,22,19,22L19,22z"/>
<g>
	<path class="st4" d="M13,11H9c0,0,0,4,4,4v-2V11z"/>
	<path class="st2" d="M30,11v-1h-5c0-2-2-2-2-2h-2c0,0,0-2-2-2s-2,2-2,2h-2c-2,0-2,2-2,2H8v1c0,1.7,1,5,5,5H8v1c0,1.7,1,5,5,5H8v1
		c0,1.7,1,5,5,5c0,2,2,2,2,2h2c0,0,0,2,2,2s2-2,2-2h2c2,0,2-2,2-2c4,0,5-3.3,5-5v-1h-5c4,0,5-3.3,5-5v-1h-5C29,16,30,12.7,30,11z
		 M25,15h-1v4h1v-2h4c0,0,0,4-4,4h-1v4h1v-2h4c0,0,0,4-4,4h-1v1c0,0.5-0.2,1-1,1h-2l-1,0l0,1c0,0.5-0.2,1-1,1c-0.8,0-1-0.5-1-1v-1
		h-3c-0.5,0-1-0.2-1-1v-1h-1c-4,0-4-4-4-4h4v2h1v-4h-1c-4,0-4-4-4-4h4v2h1v-4h-1c-4,0-4-4-4-4h4v2h1v-3c0-0.5,0.2-1,1-1h2l1,0l0-1
		c0-0.5,0.2-1,1-1c0.8,0,1,0.5,1,1v1h3c0.5,0,1,0.2,1,1v3h1v-2h4C29,11,29,15,25,15z"/>
</g>
</svg>
