<?xml version="1.0" encoding="utf-8"?>
<!-- Generator: Adobe Illustrator 19.2.0, SVG Export Plug-In . SVG Version: 6.00 Build 0)  -->
<svg version="1.1" id="Outlined_2_" xmlns="http://www.w3.org/2000/svg" xmlns:xlink="http://www.w3.org/1999/xlink" x="0px"
	 y="0px" viewBox="0 0 38 38" style="enable-background:new 0 0 38 38;" xml:space="preserve">
<style type="text/css">
	.st0{opacity:0.1;fill:#616161;}
	.st1{fill:#BDBDBD;}
	.st2{fill:#E53935;}
	.st3{fill:#FB8C00;}
	.st4{fill:#7CB342;}
	.st5{fill:#616161;}
</style>
<rect x="2" y="2" transform="matrix(-1 -1.224647e-016 1.224647e-016 -1 28.0135 30)" class="st0" width="24" height="26"/>
<g>
	<rect x="36" y="36" transform="matrix(-1 -1.224647e-016 1.224647e-016 -1 73 73)" class="st1" width="1" height="1"/>
	<rect x="34" y="36" transform="matrix(-1 -1.224647e-016 1.224647e-016 -1 69 73)" class="st1" width="1" height="1"/>
	<rect x="32" y="36" transform="matrix(-1 -1.224647e-016 1.224647e-016 -1 65 73)" class="st1" width="1" height="1"/>
	<rect x="30" y="36" transform="matrix(-1 -1.224647e-016 1.224647e-016 -1 61 73)" class="st1" width="1" height="1"/>
	<rect x="28" y="36" transform="matrix(-1 -1.224647e-016 1.224647e-016 -1 57 73)" class="st1" width="1" height="1"/>
	<rect x="26" y="36" transform="matrix(-1 -1.224647e-016 1.224647e-016 -1 53 73)" class="st1" width="1" height="1"/>
	<rect x="24" y="36" transform="matrix(-1 -1.224647e-016 1.224647e-016 -1 49 73)" class="st1" width="1" height="1"/>
	<rect x="22" y="36" transform="matrix(-1 -1.224647e-016 1.224647e-016 -1 45 73)" class="st1" width="1" height="1"/>
	<rect x="20" y="36" transform="matrix(-1 -1.224647e-016 1.224647e-016 -1 41 73)" class="st1" width="1" height="1"/>
	<rect x="36" y="34" transform="matrix(-1 -1.224647e-016 1.224647e-016 -1 73 69)" class="st1" width="1" height="1"/>
	<rect x="34" y="34" transform="matrix(-1 -1.224647e-016 1.224647e-016 -1 69 69)" class="st1" width="1" height="1"/>
	<rect x="32" y="34" transform="matrix(-1 -1.224647e-016 1.224647e-016 -1 65 69)" class="st1" width="1" height="1"/>
	<rect x="30" y="34" transform="matrix(-1 -1.224647e-016 1.224647e-016 -1 61 69)" class="st1" width="1" height="1"/>
	<rect x="28" y="34" transform="matrix(-1 -1.224647e-016 1.224647e-016 -1 57 69)" class="st1" width="1" height="1"/>
	<rect x="26" y="34" transform="matrix(-1 -1.224647e-016 1.224647e-016 -1 53 69)" class="st1" width="1" height="1"/>
	<rect x="24" y="34" transform="matrix(-1 -1.224647e-016 1.224647e-016 -1 49 69)" class="st1" width="1" height="1"/>
	<rect x="22" y="34" transform="matrix(-1 -1.224647e-016 1.224647e-016 -1 45 69)" class="st1" width="1" height="1"/>
	<rect x="20" y="34" transform="matrix(-1 -1.224647e-016 1.224647e-016 -1 41 69)" class="st1" width="1" height="1"/>
	<rect x="36" y="32" transform="matrix(-1 -1.224647e-016 1.224647e-016 -1 73 65)" class="st1" width="1" height="1"/>
	<rect x="34" y="32" transform="matrix(-1 -1.224647e-016 1.224647e-016 -1 69 65)" class="st1" width="1" height="1"/>
	<rect x="32" y="32" transform="matrix(-1 -1.224647e-016 1.224647e-016 -1 65 65)" class="st1" width="1" height="1"/>
	<rect x="30" y="32" transform="matrix(-1 -1.224647e-016 1.224647e-016 -1 61 65)" class="st1" width="1" height="1"/>
	<rect x="28" y="32" transform="matrix(-1 -1.224647e-016 1.224647e-016 -1 57 65)" class="st1" width="1" height="1"/>
	<rect x="26" y="32" transform="matrix(-1 -1.224647e-016 1.224647e-016 -1 53 65)" class="st1" width="1" height="1"/>
	<rect x="24" y="32" transform="matrix(-1 -1.224647e-016 1.224647e-016 -1 49 65)" class="st1" width="1" height="1"/>
	<rect x="22" y="32" transform="matrix(-1 -1.224647e-016 1.224647e-016 -1 45 65)" class="st1" width="1" height="1"/>
	<rect x="20" y="32" transform="matrix(-1 -1.224647e-016 1.224647e-016 -1 41 65)" class="st1" width="1" height="1"/>
	<rect x="32" y="30" transform="matrix(6.123234e-017 -1 1 6.123234e-017 2 63)" class="st1" width="1" height="1"/>
	<rect x="32" y="28" transform="matrix(6.123234e-017 -1 1 6.123234e-017 4 61)" class="st1" width="1" height="1"/>
	<rect x="32" y="26" transform="matrix(6.123234e-017 -1 1 6.123234e-017 6 59)" class="st1" width="1" height="1"/>
	<rect x="32" y="24" transform="matrix(6.123234e-017 -1 1 6.123234e-017 8 57)" class="st1" width="1" height="1"/>
	<rect x="32" y="22" transform="matrix(6.123234e-017 -1 1 6.123234e-017 10 55)" class="st1" width="1" height="1"/>
	<rect x="32" y="20" transform="matrix(6.123234e-017 -1 1 6.123234e-017 12 53)" class="st1" width="1" height="1"/>
	<rect x="34" y="36" transform="matrix(6.123234e-017 -1 1 6.123234e-017 -2 71)" class="st1" width="1" height="1"/>
	<rect x="34" y="34" transform="matrix(6.123234e-017 -1 1 6.123234e-017 0 69)" class="st1" width="1" height="1"/>
	<rect x="34" y="30" transform="matrix(6.123234e-017 -1 1 6.123234e-017 4 65)" class="st1" width="1" height="1"/>
	<rect x="34" y="28" transform="matrix(6.123234e-017 -1 1 6.123234e-017 6 63)" class="st1" width="1" height="1"/>
	<rect x="34" y="26" transform="matrix(6.123234e-017 -1 1 6.123234e-017 8 61)" class="st1" width="1" height="1"/>
	<rect x="34" y="24" transform="matrix(6.123234e-017 -1 1 6.123234e-017 10 59)" class="st1" width="1" height="1"/>
	<rect x="34" y="22" transform="matrix(6.123234e-017 -1 1 6.123234e-017 12 57)" class="st1" width="1" height="1"/>
	<rect x="34" y="20" transform="matrix(6.123234e-017 -1 1 6.123234e-017 14 55)" class="st1" width="1" height="1"/>
	<rect x="36" y="30" transform="matrix(6.123234e-017 -1 1 6.123234e-017 6 67)" class="st1" width="1" height="1"/>
	<rect x="36" y="28" transform="matrix(6.123234e-017 -1 1 6.123234e-017 8 65)" class="st1" width="1" height="1"/>
	<rect x="36" y="26" transform="matrix(6.123234e-017 -1 1 6.123234e-017 10 63)" class="st1" width="1" height="1"/>
	<rect x="36" y="24" transform="matrix(6.123234e-017 -1 1 6.123234e-017 12 61)" class="st1" width="1" height="1"/>
	<rect x="36" y="22" transform="matrix(6.123234e-017 -1 1 6.123234e-017 14 59)" class="st1" width="1" height="1"/>
	<rect x="36" y="20" transform="matrix(6.123234e-017 -1 1 6.123234e-017 16 57)" class="st1" width="1" height="1"/>
	<rect x="30" y="30" transform="matrix(-1 -1.224647e-016 1.224647e-016 -1 61 61)" class="st1" width="1" height="1"/>
	<rect x="28" y="30" transform="matrix(-1 -1.224647e-016 1.224647e-016 -1 57 61)" class="st1" width="1" height="1"/>
	<rect x="30" y="28" transform="matrix(-1 -1.224647e-016 1.224647e-016 -1 61 57)" class="st1" width="1" height="1"/>
	<rect x="28" y="28" transform="matrix(-1 -1.224647e-016 1.224647e-016 -1 57 57)" class="st1" width="1" height="1"/>
	<rect x="28" y="30" transform="matrix(6.123234e-017 -1 1 6.123234e-017 -2 59)" class="st1" width="1" height="1"/>
	<rect x="28" y="28" transform="matrix(6.123234e-017 -1 1 6.123234e-017 0 57)" class="st1" width="1" height="1"/>
</g>
<g>
	<rect x="25" y="15" class="st2" width="1" height="1"/>
	<rect x="23" y="15" class="st3" width="1" height="1"/>
	<rect x="21" y="15" class="st4" width="1" height="1"/>
	<rect x="29" y="9" class="st2" width="1" height="1"/>
	<rect x="27" y="9" class="st3" width="1" height="1"/>
	<rect x="25" y="9" class="st4" width="1" height="1"/>
	<path class="st5" d="M31.3,7H10.7C9.8,7,9,7.8,9,8.7V12h22v-1H10V9c0-0.6,0.4-1,1-1h20c0.6,0,1,0.4,1,1v2v1v11c0,0-0.4,1-1,1h-1v1
		h1.3c0.9,0,1.7-0.8,1.7-1.7V8.7C33,7.8,32.2,7,31.3,7z"/>
</g>
<path class="st5" d="M27.3,13H6.7C5.8,13,5,13.8,5,14.7V18h1h21v-1H6v-2c0-0.6,0.4-1,1-1h20c0.6,0,1,0.4,1,1v2v1v11c0,0.6-0.4,1-1,1
	H7c-0.6,0-1-0.4-1-1V19H5v10.3C5,30.2,5.8,31,6.7,31h20.6c0.9,0,1.7-0.8,1.7-1.7V14.7C29,13.8,28.2,13,27.3,13z"/>
</svg>
