<?xml version="1.0" encoding="utf-8"?>
<!-- Generator: Adobe Illustrator 19.2.0, SVG Export Plug-In . SVG Version: 6.00 Build 0)  -->
<svg version="1.1" id="Outlined_2_" xmlns="http://www.w3.org/2000/svg" xmlns:xlink="http://www.w3.org/1999/xlink" x="0px"
	 y="0px" viewBox="0 0 38 38" style="enable-background:new 0 0 38 38;" xml:space="preserve">
<style type="text/css">
	.st0{opacity:0.1;fill:#616161;}
	.st1{fill:#BDBDBD;}
	.st2{fill:#616161;}
</style>
<rect x="2" y="18" class="st0" width="16" height="18"/>
<g>
	<rect x="35" y="2" transform="matrix(-1.836970e-016 1 -1 -1.836970e-016 38 -33)" class="st1" width="1" height="1"/>
	<rect x="35" y="4" transform="matrix(-1.836970e-016 1 -1 -1.836970e-016 40 -31)" class="st1" width="1" height="1"/>
	<rect x="35" y="6" transform="matrix(-1.836970e-016 1 -1 -1.836970e-016 42 -29)" class="st1" width="1" height="1"/>
	<rect x="35" y="8" transform="matrix(-1.836970e-016 1 -1 -1.836970e-016 44 -27)" class="st1" width="1" height="1"/>
	<rect x="35" y="10" transform="matrix(-1.836970e-016 1 -1 -1.836970e-016 46 -25)" class="st1" width="1" height="1"/>
	<rect x="35" y="12" transform="matrix(-1.836970e-016 1 -1 -1.836970e-016 48 -23)" class="st1" width="1" height="1"/>
	<rect x="35" y="14" transform="matrix(-1.836970e-016 1 -1 -1.836970e-016 50 -21)" class="st1" width="1" height="1"/>
	<rect x="35" y="16" transform="matrix(-1.836970e-016 1 -1 -1.836970e-016 52 -19)" class="st1" width="1" height="1"/>
	<rect x="35" y="18" transform="matrix(-1.836970e-016 1 -1 -1.836970e-016 54 -17)" class="st1" width="1" height="1"/>
	<rect x="33" y="2" transform="matrix(-1.836970e-016 1 -1 -1.836970e-016 36 -31)" class="st1" width="1" height="1"/>
	<rect x="33" y="4" transform="matrix(-1.836970e-016 1 -1 -1.836970e-016 38 -29)" class="st1" width="1" height="1"/>
	<rect x="33" y="6" transform="matrix(-1.836970e-016 1 -1 -1.836970e-016 40 -27)" class="st1" width="1" height="1"/>
	<rect x="33" y="8" transform="matrix(-1.836970e-016 1 -1 -1.836970e-016 42 -25)" class="st1" width="1" height="1"/>
	<rect x="33" y="10" transform="matrix(-1.836970e-016 1 -1 -1.836970e-016 44 -23)" class="st1" width="1" height="1"/>
	<rect x="33" y="12" transform="matrix(-1.836970e-016 1 -1 -1.836970e-016 46 -21)" class="st1" width="1" height="1"/>
	<rect x="33" y="14" transform="matrix(-1.836970e-016 1 -1 -1.836970e-016 48 -19)" class="st1" width="1" height="1"/>
	<rect x="33" y="16" transform="matrix(-1.836970e-016 1 -1 -1.836970e-016 50 -17)" class="st1" width="1" height="1"/>
	<rect x="33" y="18" transform="matrix(-1.836970e-016 1 -1 -1.836970e-016 52 -15)" class="st1" width="1" height="1"/>
	<rect x="31" y="2" transform="matrix(-1.836970e-016 1 -1 -1.836970e-016 34 -29)" class="st1" width="1" height="1"/>
	<rect x="31" y="4" transform="matrix(-1.836970e-016 1 -1 -1.836970e-016 36 -27)" class="st1" width="1" height="1"/>
	<rect x="31" y="6" transform="matrix(-1.836970e-016 1 -1 -1.836970e-016 38 -25)" class="st1" width="1" height="1"/>
	<rect x="31" y="8" transform="matrix(-1.836970e-016 1 -1 -1.836970e-016 40 -23)" class="st1" width="1" height="1"/>
	<rect x="31" y="10" transform="matrix(-1.836970e-016 1 -1 -1.836970e-016 42 -21)" class="st1" width="1" height="1"/>
	<rect x="31" y="12" transform="matrix(-1.836970e-016 1 -1 -1.836970e-016 44 -19)" class="st1" width="1" height="1"/>
	<rect x="31" y="14" transform="matrix(-1.836970e-016 1 -1 -1.836970e-016 46 -17)" class="st1" width="1" height="1"/>
	<rect x="31" y="16" transform="matrix(-1.836970e-016 1 -1 -1.836970e-016 48 -15)" class="st1" width="1" height="1"/>
	<rect x="31" y="18" transform="matrix(-1.836970e-016 1 -1 -1.836970e-016 50 -13)" class="st1" width="1" height="1"/>
	<rect x="29" y="6" transform="matrix(-1 -1.224647e-016 1.224647e-016 -1 59 13)" class="st1" width="1" height="1"/>
	<rect x="27" y="6" transform="matrix(-1 -1.224647e-016 1.224647e-016 -1 55 13)" class="st1" width="1" height="1"/>
	<rect x="25" y="6" transform="matrix(-1 -1.224647e-016 1.224647e-016 -1 51 13)" class="st1" width="1" height="1"/>
	<rect x="23" y="6" transform="matrix(-1 -1.224647e-016 1.224647e-016 -1 47 13)" class="st1" width="1" height="1"/>
	<rect x="21" y="6" transform="matrix(-1 -1.224647e-016 1.224647e-016 -1 43 13)" class="st1" width="1" height="1"/>
	<rect x="19" y="6" transform="matrix(-1 -1.224647e-016 1.224647e-016 -1 39 13)" class="st1" width="1" height="1"/>
	<rect x="35" y="4" transform="matrix(-1 -1.224647e-016 1.224647e-016 -1 71 9)" class="st1" width="1" height="1"/>
	<rect x="33" y="4" transform="matrix(-1 -1.224647e-016 1.224647e-016 -1 67 9)" class="st1" width="1" height="1"/>
	<rect x="29" y="4" transform="matrix(-1 -1.224647e-016 1.224647e-016 -1 59 9)" class="st1" width="1" height="1"/>
	<rect x="27" y="4" transform="matrix(-1 -1.224647e-016 1.224647e-016 -1 55 9)" class="st1" width="1" height="1"/>
	<rect x="25" y="4" transform="matrix(-1 -1.224647e-016 1.224647e-016 -1 51 9)" class="st1" width="1" height="1"/>
	<rect x="23" y="4" transform="matrix(-1 -1.224647e-016 1.224647e-016 -1 47 9)" class="st1" width="1" height="1"/>
	<rect x="21" y="4" transform="matrix(-1 -1.224647e-016 1.224647e-016 -1 43 9)" class="st1" width="1" height="1"/>
	<rect x="19" y="4" transform="matrix(-1 -1.224647e-016 1.224647e-016 -1 39 9)" class="st1" width="1" height="1"/>
	<rect x="29" y="2" transform="matrix(-1 -1.224647e-016 1.224647e-016 -1 59 5)" class="st1" width="1" height="1"/>
	<rect x="27" y="2" transform="matrix(-1 -1.224647e-016 1.224647e-016 -1 55 5)" class="st1" width="1" height="1"/>
	<rect x="25" y="2" transform="matrix(-1 -1.224647e-016 1.224647e-016 -1 51 5)" class="st1" width="1" height="1"/>
	<rect x="23" y="2" transform="matrix(-1 -1.224647e-016 1.224647e-016 -1 47 5)" class="st1" width="1" height="1"/>
	<rect x="21" y="2" transform="matrix(-1 -1.224647e-016 1.224647e-016 -1 43 5)" class="st1" width="1" height="1"/>
	<rect x="19" y="2" transform="matrix(-1 -1.224647e-016 1.224647e-016 -1 39 5)" class="st1" width="1" height="1"/>
	<rect x="29" y="8" transform="matrix(-1.836970e-016 1 -1 -1.836970e-016 38 -21)" class="st1" width="1" height="1"/>
	<rect x="29" y="10" transform="matrix(-1.836970e-016 1 -1 -1.836970e-016 40 -19)" class="st1" width="1" height="1"/>
	<rect x="27" y="8" transform="matrix(-1.836970e-016 1 -1 -1.836970e-016 36 -19)" class="st1" width="1" height="1"/>
	<rect x="27" y="10" transform="matrix(-1.836970e-016 1 -1 -1.836970e-016 38 -17)" class="st1" width="1" height="1"/>
	<rect x="29" y="10" transform="matrix(-1 -1.224647e-016 1.224647e-016 -1 59 21)" class="st1" width="1" height="1"/>
	<rect x="27" y="10" transform="matrix(-1 -1.224647e-016 1.224647e-016 -1 55 21)" class="st1" width="1" height="1"/>
</g>
<g>
	<path class="st2" d="M26.3,25.6c1.7-1.9,2.7-4.3,2.7-7.1C29,12.7,24.3,8,18.5,8C12.7,8,8,12.7,8,18.5S12.7,29,18.5,29
		c2.7,0,5.2-1,7-2.7l5.6,5.6l0.7-0.7L26.3,25.6z M18.5,28C13.3,28,9,23.7,9,18.5S13.3,9,18.5,9c5.2,0,9.5,4.3,9.5,9.5
		S23.8,28,18.5,28z"/>
</g>
</svg>
